<svg width="18" height="14" viewBox="0 0 18 14" fill="none" xmlns="http://www.w3.org/2000/svg">
<path d="M7.41301 0.766042C7.50988 0.702379 7.64198 0.71374 7.72696 0.79908C7.82438 0.896919 7.82404 1.05521 7.7262 1.15263L7.72616 1.15267L2.96317 5.8962L2.10534 6.75053L3.31602 6.75048L16.4832 6.74988L16.5468 6.75415C16.6623 6.77578 16.75 6.87797 16.75 6.99988C16.75 7.13795 16.6381 7.24988 16.5 7.24988H16.5L3.31798 7.25048L2.10763 7.25053L2.96513 8.10471L7.71321 12.8344L7.75865 12.8868C7.82273 12.9834 7.81192 13.1156 7.72694 13.2009L8.07878 13.5513L7.72694 13.2009C7.62951 13.2987 7.47122 13.299 7.37339 13.2016L1.32339 7.17662L1.31765 7.1709C1.31218 7.16508 1.307 7.15901 1.30212 7.15272L1.29863 7.14808C1.29572 7.14417 1.29321 7.14055 1.29144 7.13787L1.29106 7.13729C1.2879 7.13252 1.28466 7.12728 1.28116 7.1211L1.27705 7.11338L1.27601 7.11127C1.27275 7.10476 1.26962 7.09778 1.26649 7.08981L1.26319 7.08067L1.26262 7.07893C1.26042 7.07233 1.25836 7.0652 1.25642 7.05708L1.25475 7.04923L1.25428 7.04661C1.25341 7.04198 1.25266 7.03726 1.25205 7.03247L1.25012 6.99086L1.25019 6.98551C1.25029 6.98379 1.25039 6.98253 1.25048 6.98165C1.25051 6.98125 1.25055 6.98092 1.25058 6.98068L1.25131 6.97421L1.25126 6.97421C1.25187 6.96808 1.25281 6.96095 1.25413 6.9529L1.25506 6.9483L1.25685 6.94123L1.2568 6.94121C1.25822 6.93529 1.26018 6.92803 1.26271 6.91966C1.26298 6.91875 1.26327 6.91782 1.26355 6.91688C1.2636 6.91673 1.26365 6.91657 1.2637 6.91641L1.25859 6.91483L7.41301 0.766042ZM7.41301 0.766042L7.36042 0.811241L1.3234 6.82232C1.31142 6.83425 1.30116 6.84674 1.29243 6.85959C1.28719 6.86827 1.28408 6.87352 1.28162 6.8779L1.27787 6.88457L1.27615 6.88743L7.41301 0.766042Z" stroke="#0A0F29" stroke-opacity="0.7"/>
</svg>
