<svg width="32" height="32" viewBox="0 0 32 32" fill="none" xmlns="http://www.w3.org/2000/svg">
<path fill-rule="evenodd" clip-rule="evenodd" d="M23.5167 9.47991V9.47991C23.0193 9.47991 22.5687 9.19324 22.3567 8.74524C21.974 7.93458 21.4873 6.89858 21.1993 6.33458C20.774 5.49591 20.0847 5.00791 19.13 5.00124C19.114 4.99991 12.8847 4.99991 12.8687 5.00124C11.914 5.00791 11.226 5.49591 10.7993 6.33458C10.5127 6.89858 10.026 7.93458 9.64335 8.74524C9.43135 9.19324 8.97935 9.47991 8.48335 9.47991V9.47991C5.82202 9.47991 3.66602 11.6359 3.66602 14.2959V22.2106C3.66602 24.8692 5.82202 27.0266 8.48335 27.0266H23.5167C26.1767 27.0266 28.3327 24.8692 28.3327 22.2106V14.2959C28.3327 11.6359 26.1767 9.47991 23.5167 9.47991Z" stroke="#A1A1A2" stroke-width="2" stroke-linecap="round" stroke-linejoin="round"/>
<path fill-rule="evenodd" clip-rule="evenodd" d="M11.7609 17.7794C11.7595 20.1167 13.6675 22.0287 16.0009 22.0274C18.3302 22.0247 20.2329 20.1207 20.2369 17.7887C20.2409 15.4474 18.3395 13.5394 16.0035 13.5367C13.6542 13.5341 11.7422 15.4741 11.7609 17.7794Z" stroke="#A1A1A2" stroke-width="2" stroke-linecap="round" stroke-linejoin="round"/>
<path d="M22.5364 14.6602C22.4075 14.647 22.2803 14.6134 22.1378 14.5561C21.9793 14.4856 21.8421 14.3961 21.7094 14.2613C21.471 14.0077 21.333 13.6762 21.333 13.3341C21.333 13.1524 21.3702 12.9723 21.4427 12.8092C21.5154 12.6439 21.6015 12.5045 21.7572 12.3529C21.8757 12.2497 21.997 12.1667 22.1629 12.0936C22.6547 11.8987 23.2398 12.0152 23.6055 12.3807C23.715 12.4886 23.8073 12.6189 23.8585 12.7288L23.8889 12.8067C23.9625 12.9723 23.9997 13.1524 23.9997 13.3341C23.9997 13.6831 23.8634 14.0058 23.6105 14.2745C23.3919 14.4945 23.1049 14.6299 22.7986 14.6602L22.6663 14.6668L22.5364 14.6602Z" fill="#A1A1A2"/>
</svg>
