<svg width="364" height="184" viewBox="0 0 364 184" fill="none" xmlns="http://www.w3.org/2000/svg">
    <g filter="url(#filter0_d_76_9848)">
    <g clip-path="url(#clip0_76_9848)">
    <path d="M2 17C2 8.16344 9.16344 1 18 1H346C354.837 1 362 8.16344 362 17V165C362 173.837 354.837 181 346 181H18C9.16344 181 2 173.837 2 165V17Z" fill="#FFF6E0"/>
    <mask id="mask0_76_9848" style="mask-type:alpha" maskUnits="userSpaceOnUse" x="2" y="-149" width="658" height="563">
    <rect x="2" y="-148.955" width="657.946" height="562.955" fill="url(#paint0_radial_76_9848)"/>
    </mask>
    <g mask="url(#mask0_76_9848)">
    <line x1="2.5" y1="-148.455" x2="2.50002" y2="413.5" stroke="#C1C7D0" stroke-linecap="round" stroke-dasharray="4 4"/>
    <line x1="134.089" y1="-148.455" x2="134.089" y2="413.5" stroke="#C1C7D0" stroke-linecap="round" stroke-dasharray="4 4"/>
    <line x1="265.679" y1="-148.455" x2="265.679" y2="413.5" stroke="#C1C7D0" stroke-linecap="round" stroke-dasharray="4 4"/>
    <line x1="35.3975" y1="-148.455" x2="35.3975" y2="413.5" stroke="#C1C7D0" stroke-linecap="round" stroke-dasharray="4 4"/>
    <line x1="166.986" y1="-148.455" x2="166.986" y2="413.5" stroke="#C1C7D0" stroke-linecap="round" stroke-dasharray="4 4"/>
    <line x1="298.576" y1="-148.455" x2="298.576" y2="413.5" stroke="#C1C7D0" stroke-linecap="round" stroke-dasharray="4 4"/>
    <line x1="68.2949" y1="-148.455" x2="68.2949" y2="413.5" stroke="#C1C7D0" stroke-linecap="round" stroke-dasharray="4 4"/>
    <line x1="199.884" y1="-148.455" x2="199.884" y2="413.5" stroke="#C1C7D0" stroke-linecap="round" stroke-dasharray="4 4"/>
    <line x1="331.473" y1="-148.455" x2="331.473" y2="413.5" stroke="#C1C7D0" stroke-linecap="round" stroke-dasharray="4 4"/>
    <line x1="101.192" y1="-148.455" x2="101.192" y2="413.5" stroke="#C1C7D0" stroke-linecap="round" stroke-dasharray="4 4"/>
    <line x1="232.781" y1="-148.455" x2="232.781" y2="413.5" stroke="#C1C7D0" stroke-linecap="round" stroke-dasharray="4 4"/>
    <line x1="659.445" y1="1.66626" x2="2.49927" y2="1.66626" stroke="#C1C7D0" stroke-linecap="round" stroke-dasharray="4 4"/>
    <line x1="659.445" y1="151.788" x2="2.49927" y2="151.788" stroke="#C1C7D0" stroke-linecap="round" stroke-dasharray="4 4"/>
    <line x1="659.445" y1="39.1965" x2="2.49927" y2="39.1965" stroke="#C1C7D0" stroke-linecap="round" stroke-dasharray="4 4"/>
    <line x1="659.445" y1="76.7271" x2="2.49927" y2="76.727" stroke="#C1C7D0" stroke-linecap="round" stroke-dasharray="4 4"/>
    <line x1="659.445" y1="114.257" x2="2.49927" y2="114.257" stroke="#C1C7D0" stroke-linecap="round" stroke-dasharray="4 4"/>
    </g>
    <rect x="314.5" y="11" width="35" height="22" rx="11" fill="#AAD130"/>
    <path d="M324.646 26L327.793 17.5449H328.836L331.977 26H330.869L330.014 23.5801H326.609L325.754 26H324.646ZM328.303 18.8105L326.932 22.6836H329.697L328.326 18.8105H328.303ZM334.965 26.1172C333.406 26.1172 332.375 24.875 332.375 22.9531V22.9473C332.375 21.0254 333.418 19.7891 334.947 19.7891C335.809 19.7891 336.518 20.2227 336.898 20.9258H336.922V17.5449H337.941V26H336.922V24.9688H336.898C336.518 25.6777 335.838 26.1172 334.965 26.1172ZM335.164 25.2148C336.195 25.2148 336.928 24.3184 336.928 22.9531V22.9473C336.928 21.5879 336.189 20.6914 335.164 20.6914C334.086 20.6914 333.418 21.5586 333.418 22.9473V22.9531C333.418 24.3535 334.086 25.2148 335.164 25.2148Z" fill="white"/>
    <path d="M29.0994 57H24.201V43.1818H29.1399C30.5298 43.1818 31.7263 43.4585 32.7294 44.0117C33.7325 44.5605 34.5039 45.3499 35.0437 46.38C35.588 47.41 35.8601 48.6425 35.8601 50.0774C35.8601 51.5168 35.588 52.7538 35.0437 53.7884C34.5039 54.8229 33.728 55.6168 32.7159 56.1701C31.7083 56.7234 30.5028 57 29.0994 57ZM27.1225 54.4968H28.978C29.8416 54.4968 30.5681 54.3439 31.1573 54.038C31.7511 53.7276 32.1964 53.2486 32.4933 52.6009C32.7946 51.9486 32.9453 51.1075 32.9453 50.0774C32.9453 49.0563 32.7946 48.2219 32.4933 47.5742C32.1964 46.9265 31.7533 46.4497 31.1641 46.1438C30.5748 45.8379 29.8484 45.685 28.9847 45.685H27.1225V54.4968ZM42.1233 57.2024C41.0572 57.2024 40.1396 56.9865 39.3704 56.5547C38.6058 56.1184 38.0165 55.5021 37.6027 54.706C37.1888 53.9053 36.9819 52.9585 36.9819 51.8654C36.9819 50.7994 37.1888 49.8638 37.6027 49.0586C38.0165 48.2534 38.599 47.6259 39.3502 47.1761C40.1059 46.7263 40.992 46.5014 42.0086 46.5014C42.6923 46.5014 43.3288 46.6116 43.918 46.832C44.5118 47.0479 45.029 47.3741 45.4699 47.8104C45.9152 48.2467 46.2615 48.7955 46.5089 49.4567C46.7563 50.1134 46.88 50.8826 46.88 51.7642V52.5536H38.129V50.7724H44.1744C44.1744 50.3585 44.0844 49.992 43.9045 49.6726C43.7246 49.3532 43.475 49.1036 43.1556 48.9237C42.8407 48.7392 42.4741 48.647 42.0558 48.647C41.6195 48.647 41.2326 48.7482 40.8953 48.9506C40.5624 49.1486 40.3015 49.4162 40.1126 49.7536C39.9237 50.0864 39.827 50.4575 39.8225 50.8668V52.5604C39.8225 53.0732 39.917 53.5162 40.1059 53.8896C40.2993 54.2629 40.5714 54.5508 40.9223 54.7532C41.2731 54.9556 41.6892 55.0568 42.1705 55.0568C42.4899 55.0568 42.7822 55.0118 43.0476 54.9219C43.313 54.8319 43.5402 54.697 43.7291 54.517C43.918 54.3371 44.062 54.1167 44.1609 53.8558L46.8193 54.0312C46.6844 54.67 46.4077 55.2277 45.9894 55.7045C45.5756 56.1768 45.0403 56.5457 44.3836 56.8111C43.7313 57.072 42.9779 57.2024 42.1233 57.2024ZM56.8086 49.5916L54.1772 49.7536C54.1322 49.5286 54.0355 49.3262 53.8871 49.1463C53.7386 48.9619 53.543 48.8157 53.3001 48.7077C53.0617 48.5953 52.776 48.5391 52.4432 48.5391C51.9979 48.5391 51.6223 48.6335 51.3164 48.8224C51.0105 49.0069 50.8576 49.2543 50.8576 49.5646C50.8576 49.812 50.9566 50.0212 51.1545 50.1921C51.3524 50.363 51.692 50.5002 52.1733 50.6037L54.049 50.9815C55.0566 51.1884 55.8078 51.5213 56.3026 51.9801C56.7974 52.4389 57.0447 53.0417 57.0447 53.7884C57.0447 54.4676 56.8446 55.0636 56.4443 55.5763C56.0484 56.0891 55.5041 56.4895 54.8114 56.7773C54.1232 57.0607 53.3293 57.2024 52.4297 57.2024C51.0578 57.2024 49.9647 56.9168 49.1506 56.3455C48.3409 55.7698 47.8664 54.9871 47.7269 53.9975L50.554 53.8491C50.6394 54.2674 50.8464 54.5868 51.1747 54.8072C51.5031 55.0231 51.9237 55.131 52.4364 55.131C52.9402 55.131 53.3451 55.0343 53.6509 54.8409C53.9613 54.643 54.1187 54.3888 54.1232 54.0785C54.1187 53.8176 54.0085 53.6039 53.7926 53.4375C53.5767 53.2666 53.2438 53.1361 52.794 53.0462L50.9993 52.6886C49.9872 52.4862 49.2338 52.1353 48.739 51.636C48.2487 51.1367 48.0036 50.5002 48.0036 49.7266C48.0036 49.0608 48.1835 48.4873 48.5433 48.006C48.9077 47.5247 49.4182 47.1536 50.0749 46.8928C50.7362 46.6319 51.5098 46.5014 52.396 46.5014C53.7049 46.5014 54.735 46.7781 55.4862 47.3313C56.2418 47.8846 56.6827 48.638 56.8086 49.5916ZM58.2847 57V46.6364H61.159V57H58.2847ZM59.7286 45.3004C59.3012 45.3004 58.9347 45.1587 58.6288 44.8754C58.3274 44.5875 58.1767 44.2434 58.1767 43.843C58.1767 43.4472 58.3274 43.1076 58.6288 42.8242C58.9347 42.5363 59.3012 42.3924 59.7286 42.3924C60.1559 42.3924 60.5202 42.5363 60.8216 42.8242C61.1275 43.1076 61.2804 43.4472 61.2804 43.843C61.2804 44.2434 61.1275 44.5875 60.8216 44.8754C60.5202 45.1587 60.1559 45.3004 59.7286 45.3004ZM67.5605 61.1023C66.6294 61.1023 65.8309 60.9741 65.1652 60.7177C64.504 60.4658 63.9777 60.1217 63.5864 59.6854C63.1951 59.2491 62.9409 58.7588 62.824 58.2145L65.4823 57.8569C65.5633 58.0638 65.6915 58.2572 65.8669 58.4371C66.0424 58.6171 66.274 58.761 66.5619 58.869C66.8543 58.9814 67.2096 59.0376 67.6279 59.0376C68.2532 59.0376 68.7682 58.8847 69.173 58.5788C69.5824 58.2775 69.787 57.7714 69.787 57.0607V55.1648H69.6656C69.5396 55.4527 69.3507 55.7248 69.0988 55.9812C68.8469 56.2376 68.5231 56.4467 68.1272 56.6087C67.7314 56.7706 67.2591 56.8516 66.7103 56.8516C65.9322 56.8516 65.2237 56.6716 64.585 56.3118C63.9507 55.9474 63.4447 55.3919 63.0669 54.6452C62.6935 53.8941 62.5068 52.945 62.5068 51.7979C62.5068 50.6239 62.698 49.6433 63.0804 48.8562C63.4627 48.069 63.971 47.4798 64.6052 47.0884C65.2439 46.6971 65.9434 46.5014 66.7036 46.5014C67.2838 46.5014 67.7696 46.6004 68.161 46.7983C68.5523 46.9917 68.8672 47.2346 69.1056 47.527C69.3485 47.8149 69.5351 48.0982 69.6656 48.3771H69.7735V46.6364H72.6276V57.1012C72.6276 57.9828 72.4117 58.7205 71.9799 59.3143C71.548 59.908 70.9498 60.3533 70.1851 60.6502C69.4249 60.9516 68.5501 61.1023 67.5605 61.1023ZM67.6212 54.6925C68.0845 54.6925 68.4758 54.5778 68.7952 54.3484C69.1191 54.1145 69.3665 53.7816 69.5374 53.3498C69.7128 52.9135 69.8005 52.3917 69.8005 51.7844C69.8005 51.1772 69.7151 50.6509 69.5441 50.2056C69.3732 49.7558 69.1258 49.4072 68.8019 49.1598C68.4781 48.9124 68.0845 48.7887 67.6212 48.7887C67.1489 48.7887 66.7508 48.9169 66.4269 49.1733C66.1031 49.4252 65.8579 49.776 65.6915 50.2259C65.5251 50.6757 65.4419 51.1952 65.4419 51.7844C65.4419 52.3827 65.5251 52.9 65.6915 53.3363C65.8624 53.7681 66.1076 54.1032 66.4269 54.3416C66.7508 54.5755 67.1489 54.6925 67.6212 54.6925ZM77.2192 51.0085V57H74.3449V46.6364H77.0842V48.4648H77.2057C77.4351 47.8621 77.8197 47.3853 78.3594 47.0344C78.8992 46.6791 79.5537 46.5014 80.3229 46.5014C81.0426 46.5014 81.67 46.6589 82.2053 46.9737C82.7406 47.2886 83.1567 47.7384 83.4535 48.3232C83.7504 48.9034 83.8988 49.5961 83.8988 50.4013V57H81.0246V50.9141C81.0291 50.2798 80.8671 49.785 80.5388 49.4297C80.2104 49.0698 79.7583 48.8899 79.1826 48.8899C78.7957 48.8899 78.4539 48.9731 78.157 49.1396C77.8646 49.306 77.6352 49.5489 77.4688 49.8683C77.3069 50.1831 77.2237 50.5632 77.2192 51.0085ZM92.3769 57.1957C91.7157 57.1957 91.1264 57.081 90.6092 56.8516C90.0919 56.6177 89.6826 56.2736 89.3812 55.8192C89.0843 55.3604 88.9359 54.7892 88.9359 54.1055C88.9359 53.5297 89.0416 53.0462 89.253 52.6548C89.4644 52.2635 89.7523 51.9486 90.1166 51.7102C90.481 51.4718 90.8948 51.2919 91.3581 51.1705C91.8259 51.049 92.3162 50.9635 92.829 50.9141C93.4317 50.8511 93.9175 50.7926 94.2864 50.7386C94.6552 50.6802 94.9229 50.5947 95.0893 50.4822C95.2557 50.3698 95.3389 50.2034 95.3389 49.983V49.9425C95.3389 49.5152 95.204 49.1845 94.9341 48.9506C94.6687 48.7167 94.2909 48.5998 93.8006 48.5998C93.2833 48.5998 92.8717 48.7145 92.5658 48.9439C92.26 49.1688 92.0576 49.4522 91.9586 49.794L89.3002 49.5781C89.4352 48.9484 89.7006 48.4041 90.0964 47.9453C90.4922 47.482 91.0028 47.1267 91.628 46.8793C92.2577 46.6274 92.9864 46.5014 93.8141 46.5014C94.3898 46.5014 94.9408 46.5689 95.4671 46.7038C95.9979 46.8388 96.468 47.0479 96.8773 47.3313C97.2911 47.6147 97.6172 47.979 97.8556 48.4244C98.094 48.8652 98.2132 49.3937 98.2132 50.0099V57H95.4874V55.5629H95.4064C95.24 55.8867 95.0173 56.1723 94.7384 56.4197C94.4595 56.6626 94.1244 56.8538 93.7331 56.9933C93.3418 57.1282 92.8897 57.1957 92.3769 57.1957ZM93.2001 55.212C93.6229 55.212 93.9962 55.1288 94.3201 54.9624C94.644 54.7914 94.8981 54.562 95.0825 54.2741C95.267 53.9863 95.3592 53.6602 95.3592 53.2958V52.196C95.2692 52.2545 95.1455 52.3085 94.9881 52.358C94.8351 52.4029 94.662 52.4457 94.4685 52.4862C94.2751 52.5221 94.0817 52.5559 93.8883 52.5874C93.6949 52.6143 93.5194 52.6391 93.362 52.6616C93.0247 52.7111 92.73 52.7898 92.4781 52.8977C92.2262 53.0057 92.0306 53.1519 91.8911 53.3363C91.7517 53.5162 91.682 53.7411 91.682 54.011C91.682 54.4023 91.8237 54.7015 92.107 54.9084C92.3949 55.1108 92.7593 55.212 93.2001 55.212ZM108.496 49.5916L105.865 49.7536C105.82 49.5286 105.723 49.3262 105.575 49.1463C105.426 48.9619 105.23 48.8157 104.987 48.7077C104.749 48.5953 104.463 48.5391 104.131 48.5391C103.685 48.5391 103.31 48.6335 103.004 48.8224C102.698 49.0069 102.545 49.2543 102.545 49.5646C102.545 49.812 102.644 50.0212 102.842 50.1921C103.04 50.363 103.379 50.5002 103.861 50.6037L105.736 50.9815C106.744 51.1884 107.495 51.5213 107.99 51.9801C108.485 52.4389 108.732 53.0417 108.732 53.7884C108.732 54.4676 108.532 55.0636 108.132 55.5763C107.736 56.0891 107.192 56.4895 106.499 56.7773C105.811 57.0607 105.017 57.2024 104.117 57.2024C102.745 57.2024 101.652 56.9168 100.838 56.3455C100.028 55.7698 99.5538 54.9871 99.4143 53.9975L102.241 53.8491C102.327 54.2674 102.534 54.5868 102.862 54.8072C103.191 55.0231 103.611 55.131 104.124 55.131C104.628 55.131 105.032 55.0343 105.338 54.8409C105.649 54.643 105.806 54.3888 105.811 54.0785C105.806 53.8176 105.696 53.6039 105.48 53.4375C105.264 53.2666 104.931 53.1361 104.481 53.0462L102.687 52.6886C101.675 52.4862 100.921 52.1353 100.426 51.636C99.9361 51.1367 99.691 50.5002 99.691 49.7266C99.691 49.0608 99.8709 48.4873 100.231 48.006C100.595 47.5247 101.106 47.1536 101.762 46.8928C102.424 46.6319 103.197 46.5014 104.083 46.5014C105.392 46.5014 106.422 46.7781 107.174 47.3313C107.929 47.8846 108.37 48.638 108.496 49.5916ZM116.755 57.1957C116.094 57.1957 115.504 57.081 114.987 56.8516C114.47 56.6177 114.06 56.2736 113.759 55.8192C113.462 55.3604 113.314 54.7892 113.314 54.1055C113.314 53.5297 113.419 53.0462 113.631 52.6548C113.842 52.2635 114.13 51.9486 114.495 51.7102C114.859 51.4718 115.273 51.2919 115.736 51.1705C116.204 51.049 116.694 50.9635 117.207 50.9141C117.81 50.8511 118.295 50.7926 118.664 50.7386C119.033 50.6802 119.301 50.5947 119.467 50.4822C119.634 50.3698 119.717 50.2034 119.717 49.983V49.9425C119.717 49.5152 119.582 49.1845 119.312 48.9506C119.047 48.7167 118.669 48.5998 118.178 48.5998C117.661 48.5998 117.25 48.7145 116.944 48.9439C116.638 49.1688 116.435 49.4522 116.336 49.794L113.678 49.5781C113.813 48.9484 114.078 48.4041 114.474 47.9453C114.87 47.482 115.381 47.1267 116.006 46.8793C116.636 46.6274 117.364 46.5014 118.192 46.5014C118.768 46.5014 119.319 46.5689 119.845 46.7038C120.376 46.8388 120.846 47.0479 121.255 47.3313C121.669 47.6147 121.995 47.979 122.234 48.4244C122.472 48.8652 122.591 49.3937 122.591 50.0099V57H119.865V55.5629H119.784C119.618 55.8867 119.395 56.1723 119.116 56.4197C118.837 56.6626 118.502 56.8538 118.111 56.9933C117.72 57.1282 117.268 57.1957 116.755 57.1957ZM117.578 55.212C118.001 55.212 118.374 55.1288 118.698 54.9624C119.022 54.7914 119.276 54.562 119.46 54.2741C119.645 53.9863 119.737 53.6602 119.737 53.2958V52.196C119.647 52.2545 119.523 52.3085 119.366 52.358C119.213 52.4029 119.04 52.4457 118.846 52.4862C118.653 52.5221 118.46 52.5559 118.266 52.5874C118.073 52.6143 117.897 52.6391 117.74 52.6616C117.403 52.7111 117.108 52.7898 116.856 52.8977C116.604 53.0057 116.408 53.1519 116.269 53.3363C116.13 53.5162 116.06 53.7411 116.06 54.011C116.06 54.4023 116.202 54.7015 116.485 54.9084C116.773 55.1108 117.137 55.212 117.578 55.212ZM136.701 49.5916L134.07 49.7536C134.025 49.5286 133.928 49.3262 133.78 49.1463C133.631 48.9619 133.436 48.8157 133.193 48.7077C132.954 48.5953 132.669 48.5391 132.336 48.5391C131.891 48.5391 131.515 48.6335 131.209 48.8224C130.903 49.0069 130.75 49.2543 130.75 49.5646C130.75 49.812 130.849 50.0212 131.047 50.1921C131.245 50.363 131.585 50.5002 132.066 50.6037L133.942 50.9815C134.949 51.1884 135.701 51.5213 136.195 51.9801C136.69 52.4389 136.938 53.0417 136.938 53.7884C136.938 54.4676 136.737 55.0636 136.337 55.5763C135.941 56.0891 135.397 56.4895 134.704 56.7773C134.016 57.0607 133.222 57.2024 132.322 57.2024C130.951 57.2024 129.858 56.9168 129.043 56.3455C128.234 55.7698 127.759 54.9871 127.62 53.9975L130.447 53.8491C130.532 54.2674 130.739 54.5868 131.067 54.8072C131.396 55.0231 131.816 55.131 132.329 55.131C132.833 55.131 133.238 55.0343 133.544 54.8409C133.854 54.643 134.012 54.3888 134.016 54.0785C134.012 53.8176 133.901 53.6039 133.685 53.4375C133.469 53.2666 133.137 53.1361 132.687 53.0462L130.892 52.6886C129.88 52.4862 129.127 52.1353 128.632 51.636C128.141 51.1367 127.896 50.5002 127.896 49.7266C127.896 49.0608 128.076 48.4873 128.436 48.006C128.8 47.5247 129.311 47.1536 129.968 46.8928C130.629 46.6319 131.403 46.5014 132.289 46.5014C133.598 46.5014 134.628 46.7781 135.379 47.3313C136.135 47.8846 136.575 48.638 136.701 49.5916ZM142.9 57.2024C141.834 57.2024 140.917 56.9865 140.148 56.5547C139.383 56.1184 138.794 55.5021 138.38 54.706C137.966 53.9053 137.759 52.9585 137.759 51.8654C137.759 50.7994 137.966 49.8638 138.38 49.0586C138.794 48.2534 139.376 47.6259 140.127 47.1761C140.883 46.7263 141.769 46.5014 142.786 46.5014C143.469 46.5014 144.106 46.6116 144.695 46.832C145.289 47.0479 145.806 47.3741 146.247 47.8104C146.692 48.2467 147.039 48.7955 147.286 49.4567C147.534 50.1134 147.657 50.8826 147.657 51.7642V52.5536H138.906V50.7724H144.952C144.952 50.3585 144.862 49.992 144.682 49.6726C144.502 49.3532 144.252 49.1036 143.933 48.9237C143.618 48.7392 143.251 48.647 142.833 48.647C142.397 48.647 142.01 48.7482 141.672 48.9506C141.34 49.1486 141.079 49.4162 140.89 49.7536C140.701 50.0864 140.604 50.4575 140.6 50.8668V52.5604C140.6 53.0732 140.694 53.5162 140.883 53.8896C141.076 54.2629 141.349 54.5508 141.699 54.7532C142.05 54.9556 142.466 55.0568 142.948 55.0568C143.267 55.0568 143.559 55.0118 143.825 54.9219C144.09 54.8319 144.317 54.697 144.506 54.517C144.695 54.3371 144.839 54.1167 144.938 53.8558L147.596 54.0312C147.462 54.67 147.185 55.2277 146.767 55.7045C146.353 56.1768 145.817 56.5457 145.161 56.8111C144.509 57.072 143.755 57.2024 142.9 57.2024ZM148.963 57V46.6364H151.749V48.4446H151.857C152.046 47.8014 152.363 47.3156 152.809 46.9872C153.254 46.6544 153.767 46.4879 154.347 46.4879C154.491 46.4879 154.646 46.4969 154.813 46.5149C154.979 46.5329 155.125 46.5576 155.251 46.5891V49.1396C155.116 49.0991 154.93 49.0631 154.691 49.0316C154.453 49.0001 154.235 48.9844 154.037 48.9844C153.614 48.9844 153.236 49.0766 152.903 49.261C152.575 49.4409 152.314 49.6928 152.121 50.0167C151.932 50.3406 151.837 50.7139 151.837 51.1367V57H148.963ZM166.145 46.6364L162.521 57H159.283L155.66 46.6364H158.696L160.848 54.0515H160.956L163.102 46.6364H166.145ZM167.046 57V46.6364H169.92V57H167.046ZM168.489 45.3004C168.062 45.3004 167.696 45.1587 167.39 44.8754C167.088 44.5875 166.938 44.2434 166.938 43.843C166.938 43.4472 167.088 43.1076 167.39 42.8242C167.696 42.5363 168.062 42.3924 168.489 42.3924C168.917 42.3924 169.281 42.5363 169.583 42.8242C169.888 43.1076 170.041 43.4472 170.041 43.843C170.041 44.2434 169.888 44.5875 169.583 44.8754C169.281 45.1587 168.917 45.3004 168.489 45.3004ZM176.335 57.2024C175.273 57.2024 174.36 56.9775 173.596 56.5277C172.835 56.0734 172.251 55.4437 171.841 54.6385C171.436 53.8333 171.234 52.9067 171.234 51.8587C171.234 50.7971 171.439 49.866 171.848 49.0653C172.262 48.2602 172.849 47.6327 173.609 47.1829C174.369 46.7286 175.273 46.5014 176.321 46.5014C177.225 46.5014 178.017 46.6656 178.696 46.994C179.376 47.3223 179.913 47.7834 180.309 48.3771C180.705 48.9709 180.923 49.6681 180.963 50.4688H178.251C178.175 49.9515 177.972 49.5354 177.644 49.2205C177.32 48.9012 176.895 48.7415 176.369 48.7415C175.923 48.7415 175.534 48.8629 175.201 49.1058C174.873 49.3442 174.617 49.6928 174.432 50.1516C174.248 50.6104 174.156 51.166 174.156 51.8182C174.156 52.4794 174.245 53.0417 174.425 53.505C174.61 53.9683 174.868 54.3214 175.201 54.5643C175.534 54.8072 175.923 54.9286 176.369 54.9286C176.697 54.9286 176.992 54.8612 177.252 54.7262C177.518 54.5913 177.736 54.3956 177.907 54.1392C178.082 53.8783 178.197 53.5657 178.251 53.2013H180.963C180.918 53.993 180.703 54.6902 180.316 55.293C179.933 55.8912 179.405 56.359 178.73 56.6964C178.055 57.0337 177.257 57.2024 176.335 57.2024ZM186.957 57.2024C185.891 57.2024 184.973 56.9865 184.204 56.5547C183.439 56.1184 182.85 55.5021 182.436 54.706C182.022 53.9053 181.815 52.9585 181.815 51.8654C181.815 50.7994 182.022 49.8638 182.436 49.0586C182.85 48.2534 183.432 47.6259 184.184 47.1761C184.939 46.7263 185.825 46.5014 186.842 46.5014C187.526 46.5014 188.162 46.6116 188.751 46.832C189.345 47.0479 189.862 47.3741 190.303 47.8104C190.749 48.2467 191.095 48.7955 191.342 49.4567C191.59 50.1134 191.713 50.8826 191.713 51.7642V52.5536H182.962V50.7724H189.008C189.008 50.3585 188.918 49.992 188.738 49.6726C188.558 49.3532 188.308 49.1036 187.989 48.9237C187.674 48.7392 187.308 48.647 186.889 48.647C186.453 48.647 186.066 48.7482 185.729 48.9506C185.396 49.1486 185.135 49.4162 184.946 49.7536C184.757 50.0864 184.66 50.4575 184.656 50.8668V52.5604C184.656 53.0732 184.75 53.5162 184.939 53.8896C185.133 54.2629 185.405 54.5508 185.756 54.7532C186.107 54.9556 186.523 55.0568 187.004 55.0568C187.323 55.0568 187.616 55.0118 187.881 54.9219C188.146 54.8319 188.374 54.697 188.563 54.517C188.751 54.3371 188.895 54.1167 188.994 53.8558L191.653 54.0312C191.518 54.67 191.241 55.2277 190.823 55.7045C190.409 56.1768 189.874 56.5457 189.217 56.8111C188.565 57.072 187.811 57.2024 186.957 57.2024ZM194.699 57.1754C194.254 57.1754 193.872 57.018 193.552 56.7031C193.237 56.3838 193.08 56.0014 193.08 55.5561C193.08 55.1153 193.237 54.7375 193.552 54.4226C193.872 54.1077 194.254 53.9503 194.699 53.9503C195.131 53.9503 195.509 54.1077 195.833 54.4226C196.157 54.7375 196.319 55.1153 196.319 55.5561C196.319 55.853 196.242 56.1251 196.089 56.3725C195.941 56.6154 195.745 56.8111 195.502 56.9595C195.259 57.1035 194.992 57.1754 194.699 57.1754ZM24.201 79V65.1818H29.7337C30.7502 65.1818 31.5981 65.3325 32.2773 65.6339C32.9566 65.9353 33.4671 66.3536 33.8089 66.8888C34.1508 67.4196 34.3217 68.0314 34.3217 68.7241C34.3217 69.2638 34.2138 69.7384 33.9979 70.1477C33.782 70.5526 33.4851 70.8854 33.1072 71.1463C32.7339 71.4027 32.3066 71.5849 31.8253 71.6928V71.8278C32.3516 71.8503 32.8441 71.9987 33.3029 72.2731C33.7662 72.5475 34.1418 72.9321 34.4297 73.4268C34.7176 73.9171 34.8615 74.5019 34.8615 75.1811C34.8615 75.9143 34.6793 76.5688 34.315 77.1445C33.9551 77.7158 33.4221 78.1679 32.7159 78.5007C32.0097 78.8336 31.1393 79 30.1048 79H24.201ZM27.1225 76.6115H29.5043C30.3184 76.6115 30.9122 76.4563 31.2855 76.146C31.6589 75.8311 31.8455 75.4128 31.8455 74.891C31.8455 74.5086 31.7533 74.1713 31.5689 73.8789C31.3845 73.5865 31.1213 73.3571 30.7795 73.1907C30.4421 73.0243 30.0395 72.9411 29.5717 72.9411H27.1225V76.6115ZM27.1225 70.9641H29.2884C29.6887 70.9641 30.044 70.8944 30.3544 70.755C30.6693 70.611 30.9167 70.4086 31.0966 70.1477C31.281 69.8868 31.3732 69.5742 31.3732 69.2099C31.3732 68.7106 31.1955 68.308 30.8402 68.0021C30.4893 67.6963 29.9901 67.5433 29.3423 67.5433H27.1225V70.9641ZM36.1385 79V68.6364H39.0128V79H36.1385ZM37.5824 67.3004C37.1551 67.3004 36.7885 67.1587 36.4826 66.8754C36.1813 66.5875 36.0306 66.2434 36.0306 65.843C36.0306 65.4472 36.1813 65.1076 36.4826 64.8242C36.7885 64.5363 37.1551 64.3924 37.5824 64.3924C38.0098 64.3924 38.3741 64.5363 38.6755 64.8242C38.9813 65.1076 39.1343 65.4472 39.1343 65.843C39.1343 66.2434 38.9813 66.5875 38.6755 66.8754C38.3741 67.1587 38.0098 67.3004 37.5824 67.3004ZM43.6196 65.1818V79H40.7453V65.1818H43.6196ZM48.2263 65.1818V79H45.3521V65.1818H48.2263ZM54.6818 79.2024C53.6158 79.2024 52.6982 78.9865 51.929 78.5547C51.1643 78.1184 50.5751 77.5021 50.1612 76.706C49.7474 75.9053 49.5405 74.9585 49.5405 73.8654C49.5405 72.7994 49.7474 71.8638 50.1612 71.0586C50.5751 70.2534 51.1576 69.6259 51.9087 69.1761C52.6644 68.7263 53.5506 68.5014 54.5671 68.5014C55.2508 68.5014 55.8873 68.6116 56.4766 68.832C57.0703 69.0479 57.5876 69.3741 58.0284 69.8104C58.4737 70.2467 58.8201 70.7955 59.0675 71.4567C59.3149 72.1134 59.4386 72.8826 59.4386 73.7642V74.5536H50.6875V72.7724H56.733C56.733 72.3585 56.643 71.992 56.4631 71.6726C56.2832 71.3532 56.0335 71.1036 55.7141 70.9237C55.3993 70.7392 55.0327 70.647 54.6144 70.647C54.178 70.647 53.7912 70.7482 53.4538 70.9506C53.121 71.1486 52.8601 71.4162 52.6712 71.7536C52.4823 72.0864 52.3855 72.4575 52.381 72.8668V74.5604C52.381 75.0732 52.4755 75.5162 52.6644 75.8896C52.8578 76.2629 53.13 76.5508 53.4808 76.7532C53.8317 76.9556 54.2478 77.0568 54.7291 77.0568C55.0484 77.0568 55.3408 77.0118 55.6062 76.9219C55.8716 76.8319 56.0987 76.697 56.2876 76.517C56.4766 76.3371 56.6205 76.1167 56.7195 75.8558L59.3778 76.0312C59.2429 76.67 58.9663 77.2277 58.5479 77.7045C58.1341 78.1768 57.5988 78.5457 56.9421 78.8111C56.2899 79.072 55.5365 79.2024 54.6818 79.2024ZM64.5632 79.1687C63.776 79.1687 63.0631 78.9663 62.4243 78.5614C61.7901 78.1521 61.2863 77.5516 60.913 76.7599C60.5441 75.9638 60.3597 74.9877 60.3597 73.8317C60.3597 72.6442 60.5509 71.6568 60.9332 70.8697C61.3155 70.078 61.8238 69.4865 62.4581 69.0952C63.0968 68.6993 63.7962 68.5014 64.5564 68.5014C65.1367 68.5014 65.6202 68.6004 66.0071 68.7983C66.3984 68.9917 66.7133 69.2346 66.9517 69.527C67.1946 69.8149 67.379 70.0982 67.5049 70.3771H67.5927V65.1818H70.4602V79H67.6264V77.3402H67.5049C67.37 77.6281 67.1788 77.9137 66.9314 78.1971C66.6885 78.476 66.3714 78.7076 65.9801 78.892C65.5932 79.0765 65.1209 79.1687 64.5632 79.1687ZM65.474 76.8814C65.9373 76.8814 66.3287 76.7554 66.648 76.5036C66.9719 76.2472 67.2193 75.8896 67.3902 75.4308C67.5657 74.9719 67.6534 74.4344 67.6534 73.8182C67.6534 73.2019 67.5679 72.6667 67.397 72.2124C67.2261 71.758 66.9787 71.4072 66.6548 71.1598C66.3309 70.9124 65.9373 70.7887 65.474 70.7887C65.0017 70.7887 64.6037 70.9169 64.2798 71.1733C63.9559 71.4297 63.7108 71.785 63.5444 72.2393C63.3779 72.6937 63.2947 73.2199 63.2947 73.8182C63.2947 74.4209 63.3779 74.954 63.5444 75.4173C63.7153 75.8761 63.9604 76.2359 64.2798 76.4968C64.6037 76.7532 65.0017 76.8814 65.474 76.8814ZM76.0808 79V68.6364H78.8202V70.4648H78.9416C79.1575 69.8576 79.5174 69.3786 80.0212 69.0277C80.525 68.6768 81.1277 68.5014 81.8294 68.5014C82.5401 68.5014 83.1451 68.6791 83.6444 69.0344C84.1437 69.3853 84.4766 69.8621 84.643 70.4648H84.7509C84.9624 69.8711 85.3447 69.3965 85.898 69.0412C86.4557 68.6813 87.1147 68.5014 87.8749 68.5014C88.842 68.5014 89.6269 68.8095 90.2296 69.4258C90.8369 70.0375 91.1405 70.9057 91.1405 72.0302V79H88.273V72.5969C88.273 72.0212 88.12 71.5894 87.8142 71.3015C87.5083 71.0136 87.1259 70.8697 86.6671 70.8697C86.1454 70.8697 85.7383 71.0361 85.4459 71.369C85.1535 71.6973 85.0073 72.1314 85.0073 72.6712V79H82.2208V72.5362C82.2208 72.0279 82.0746 71.6231 81.7822 71.3217C81.4943 71.0204 81.1142 70.8697 80.6419 70.8697C80.3226 70.8697 80.0347 70.9506 79.7783 71.1126C79.5264 71.27 79.3262 71.4927 79.1778 71.7805C79.0294 72.0639 78.9551 72.3968 78.9551 72.7791V79H76.0808ZM97.5235 79.2024C96.4754 79.2024 95.569 78.9798 94.8043 78.5344C94.0442 78.0846 93.4572 77.4594 93.0433 76.6587C92.6295 75.8536 92.4226 74.9202 92.4226 73.8587C92.4226 72.7881 92.6295 71.8525 93.0433 71.0518C93.4572 70.2467 94.0442 69.6214 94.8043 69.1761C95.569 68.7263 96.4754 68.5014 97.5235 68.5014C98.5715 68.5014 99.4756 68.7263 100.236 69.1761C101 69.6214 101.59 70.2467 102.004 71.0518C102.417 71.8525 102.624 72.7881 102.624 73.8587C102.624 74.9202 102.417 75.8536 102.004 76.6587C101.59 77.4594 101 78.0846 100.236 78.5344C99.4756 78.9798 98.5715 79.2024 97.5235 79.2024ZM97.5369 76.9759C98.0137 76.9759 98.4118 76.8409 98.7312 76.571C99.0506 76.2966 99.2912 75.9233 99.4531 75.451C99.6196 74.9787 99.7028 74.4412 99.7028 73.8384C99.7028 73.2357 99.6196 72.6982 99.4531 72.2259C99.2912 71.7536 99.0506 71.3802 98.7312 71.1058C98.4118 70.8314 98.0137 70.6942 97.5369 70.6942C97.0557 70.6942 96.6508 70.8314 96.3225 71.1058C95.9986 71.3802 95.7534 71.7536 95.587 72.2259C95.4251 72.6982 95.3441 73.2357 95.3441 73.8384C95.3441 74.4412 95.4251 74.9787 95.587 75.451C95.7534 75.9233 95.9986 76.2966 96.3225 76.571C96.6508 76.8409 97.0557 76.9759 97.5369 76.9759ZM106.798 73.0085V79H103.923V68.6364H106.663V70.4648H106.784C107.013 69.8621 107.398 69.3853 107.938 69.0344C108.478 68.6791 109.132 68.5014 109.901 68.5014C110.621 68.5014 111.248 68.6589 111.784 68.9737C112.319 69.2886 112.735 69.7384 113.032 70.3232C113.329 70.9034 113.477 71.5961 113.477 72.4013V79H110.603V72.9141C110.607 72.2798 110.446 71.785 110.117 71.4297C109.789 71.0698 109.337 70.8899 108.761 70.8899C108.374 70.8899 108.032 70.9731 107.735 71.1396C107.443 71.306 107.214 71.5489 107.047 71.8683C106.885 72.1831 106.802 72.5632 106.798 73.0085ZM120.685 68.6364V70.7955H114.444V68.6364H120.685ZM115.861 66.1534H118.735V75.8153C118.735 76.0807 118.776 76.2876 118.857 76.4361C118.938 76.58 119.05 76.6812 119.194 76.7397C119.342 76.7982 119.513 76.8274 119.707 76.8274C119.842 76.8274 119.977 76.8162 120.112 76.7937C120.246 76.7667 120.35 76.7464 120.422 76.733L120.874 78.8718C120.73 78.9168 120.528 78.9685 120.267 79.027C120.006 79.09 119.689 79.1282 119.315 79.1417C118.623 79.1687 118.015 79.0765 117.494 78.8651C116.976 78.6536 116.574 78.3253 116.286 77.88C115.998 77.4347 115.856 76.8724 115.861 76.1932V66.1534ZM125.084 73.0085V79H122.21V65.1818H125.003V70.4648H125.125C125.359 69.8531 125.737 69.3741 126.258 69.0277C126.78 68.6768 127.435 68.5014 128.222 68.5014C128.941 68.5014 129.569 68.6589 130.104 68.9737C130.644 69.2841 131.062 69.7317 131.359 70.3164C131.661 70.8967 131.809 71.5916 131.804 72.4013V79H128.93V72.9141C128.935 72.2753 128.773 71.7783 128.444 71.4229C128.121 71.0676 127.666 70.8899 127.081 70.8899C126.69 70.8899 126.344 70.9731 126.042 71.1396C125.746 71.306 125.512 71.5489 125.341 71.8683C125.174 72.1831 125.089 72.5632 125.084 73.0085ZM136.371 65.1818V79H133.496V65.1818H136.371ZM139.878 82.8864C139.513 82.8864 139.172 82.8571 138.852 82.7987C138.537 82.7447 138.276 82.675 138.069 82.5895L138.717 80.4439C139.055 80.5473 139.358 80.6036 139.628 80.6126C139.902 80.6216 140.139 80.5586 140.337 80.4237C140.539 80.2887 140.703 80.0593 140.829 79.7354L140.998 79.2969L137.28 68.6364H140.303L142.448 76.2472H142.556L144.722 68.6364H147.765L143.737 80.12C143.544 80.6778 143.281 81.1636 142.948 81.5774C142.619 81.9957 142.203 82.3174 141.699 82.5423C141.196 82.7717 140.588 82.8864 139.878 82.8864ZM149.697 79.1754C149.251 79.1754 148.869 79.018 148.55 78.7031C148.235 78.3838 148.077 78.0014 148.077 77.5561C148.077 77.1153 148.235 76.7375 148.55 76.4226C148.869 76.1077 149.251 75.9503 149.697 75.9503C150.128 75.9503 150.506 76.1077 150.83 76.4226C151.154 76.7375 151.316 77.1153 151.316 77.5561C151.316 77.853 151.24 78.1251 151.087 78.3725C150.938 78.6154 150.742 78.8111 150.5 78.9595C150.257 79.1035 149.989 79.1754 149.697 79.1754Z" fill="#0D0D12"/>
    <path d="M24.201 125V111.182H29.7337C30.7502 111.182 31.5981 111.333 32.2773 111.634C32.9566 111.935 33.4671 112.354 33.8089 112.889C34.1508 113.42 34.3217 114.031 34.3217 114.724C34.3217 115.264 34.2138 115.738 33.9979 116.148C33.782 116.553 33.4851 116.885 33.1072 117.146C32.7339 117.403 32.3066 117.585 31.8253 117.693V117.828C32.3516 117.85 32.8441 117.999 33.3029 118.273C33.7662 118.547 34.1418 118.932 34.4297 119.427C34.7176 119.917 34.8615 120.502 34.8615 121.181C34.8615 121.914 34.6793 122.569 34.315 123.145C33.9551 123.716 33.4221 124.168 32.7159 124.501C32.0097 124.834 31.1393 125 30.1048 125H24.201ZM27.1225 122.612H29.5043C30.3184 122.612 30.9122 122.456 31.2855 122.146C31.6589 121.831 31.8455 121.413 31.8455 120.891C31.8455 120.509 31.7533 120.171 31.5689 119.879C31.3845 119.587 31.1213 119.357 30.7795 119.191C30.4421 119.024 30.0395 118.941 29.5717 118.941H27.1225V122.612ZM27.1225 116.964H29.2884C29.6887 116.964 30.044 116.894 30.3544 116.755C30.6693 116.611 30.9167 116.409 31.0966 116.148C31.281 115.887 31.3732 115.574 31.3732 115.21C31.3732 114.711 31.1955 114.308 30.8402 114.002C30.4893 113.696 29.9901 113.543 29.3423 113.543H27.1225V116.964ZM36.1385 125V114.636H38.9251V116.445H39.0331C39.222 115.801 39.5391 115.316 39.9844 114.987C40.4297 114.654 40.9425 114.488 41.5228 114.488C41.6667 114.488 41.8219 114.497 41.9883 114.515C42.1548 114.533 42.3009 114.558 42.4269 114.589V117.14C42.292 117.099 42.1053 117.063 41.8669 117.032C41.6285 117 41.4103 116.984 41.2124 116.984C40.7896 116.984 40.4117 117.077 40.0789 117.261C39.7505 117.441 39.4896 117.693 39.2962 118.017C39.1073 118.341 39.0128 118.714 39.0128 119.137V125H36.1385ZM46.0013 125.196C45.3401 125.196 44.7509 125.081 44.2336 124.852C43.7163 124.618 43.307 124.274 43.0056 123.819C42.7087 123.36 42.5603 122.789 42.5603 122.105C42.5603 121.53 42.666 121.046 42.8774 120.655C43.0888 120.263 43.3767 119.949 43.741 119.71C44.1054 119.472 44.5192 119.292 44.9825 119.17C45.4503 119.049 45.9406 118.964 46.4534 118.914C47.0561 118.851 47.5419 118.793 47.9108 118.739C48.2796 118.68 48.5473 118.595 48.7137 118.482C48.8801 118.37 48.9633 118.203 48.9633 117.983V117.942C48.9633 117.515 48.8284 117.185 48.5585 116.951C48.2931 116.717 47.9153 116.6 47.425 116.6C46.9077 116.6 46.4961 116.714 46.1903 116.944C45.8844 117.169 45.682 117.452 45.583 117.794L42.9246 117.578C43.0596 116.948 43.325 116.404 43.7208 115.945C44.1166 115.482 44.6272 115.127 45.2524 114.879C45.8821 114.627 46.6108 114.501 47.4385 114.501C48.0142 114.501 48.5653 114.569 49.0915 114.704C49.6223 114.839 50.0924 115.048 50.5017 115.331C50.9155 115.615 51.2416 115.979 51.48 116.424C51.7184 116.865 51.8376 117.394 51.8376 118.01V125H49.1118V123.563H49.0308C48.8644 123.887 48.6417 124.172 48.3628 124.42C48.084 124.663 47.7489 124.854 47.3575 124.993C46.9662 125.128 46.5141 125.196 46.0013 125.196ZM46.8245 123.212C47.2473 123.212 47.6207 123.129 47.9445 122.962C48.2684 122.791 48.5225 122.562 48.7069 122.274C48.8914 121.986 48.9836 121.66 48.9836 121.296V120.196C48.8936 120.254 48.7699 120.308 48.6125 120.358C48.4596 120.403 48.2864 120.446 48.093 120.486C47.8995 120.522 47.7061 120.556 47.5127 120.587C47.3193 120.614 47.1439 120.639 46.9864 120.662C46.6491 120.711 46.3544 120.79 46.1025 120.898C45.8506 121.006 45.655 121.152 45.5155 121.336C45.3761 121.516 45.3064 121.741 45.3064 122.011C45.3064 122.402 45.4481 122.701 45.7314 122.908C46.0193 123.111 46.3837 123.212 46.8245 123.212ZM56.3719 119.009V125H53.4976V114.636H56.2369V116.465H56.3584C56.5878 115.862 56.9724 115.385 57.5121 115.034C58.0519 114.679 58.7064 114.501 59.4755 114.501C60.1952 114.501 60.8227 114.659 61.358 114.974C61.8933 115.289 62.3094 115.738 62.6062 116.323C62.9031 116.903 63.0515 117.596 63.0515 118.401V125H60.1773V118.914C60.1818 118.28 60.0198 117.785 59.6915 117.43C59.3631 117.07 58.911 116.89 58.3353 116.89C57.9484 116.89 57.6066 116.973 57.3097 117.14C57.0173 117.306 56.7879 117.549 56.6215 117.868C56.4596 118.183 56.3764 118.563 56.3719 119.009ZM68.5658 125.169C67.7786 125.169 67.0657 124.966 66.4269 124.561C65.7927 124.152 65.2889 123.552 64.9156 122.76C64.5467 121.964 64.3623 120.988 64.3623 119.832C64.3623 118.644 64.5535 117.657 64.9358 116.87C65.3182 116.078 65.8264 115.487 66.4607 115.095C67.0994 114.699 67.7989 114.501 68.559 114.501C69.1393 114.501 69.6228 114.6 70.0097 114.798C70.401 114.992 70.7159 115.235 70.9543 115.527C71.1972 115.815 71.3816 116.098 71.5076 116.377H71.5953V111.182H74.4628V125H71.629V123.34H71.5076C71.3726 123.628 71.1814 123.914 70.934 124.197C70.6911 124.476 70.374 124.708 69.9827 124.892C69.5959 125.076 69.1236 125.169 68.5658 125.169ZM69.4767 122.881C69.94 122.881 70.3313 122.755 70.6507 122.504C70.9745 122.247 71.2219 121.89 71.3929 121.431C71.5683 120.972 71.656 120.434 71.656 119.818C71.656 119.202 71.5705 118.667 71.3996 118.212C71.2287 117.758 70.9813 117.407 70.6574 117.16C70.3335 116.912 69.94 116.789 69.4767 116.789C69.0044 116.789 68.6063 116.917 68.2824 117.173C67.9585 117.43 67.7134 117.785 67.547 118.239C67.3805 118.694 67.2973 119.22 67.2973 119.818C67.2973 120.421 67.3805 120.954 67.547 121.417C67.7179 121.876 67.963 122.236 68.2824 122.497C68.6063 122.753 69.0044 122.881 69.4767 122.881ZM80.0835 125V114.636H82.9578V125H80.0835ZM81.5274 113.3C81.1 113.3 80.7334 113.159 80.4276 112.875C80.1262 112.587 79.9755 112.243 79.9755 111.843C79.9755 111.447 80.1262 111.108 80.4276 110.824C80.7334 110.536 81.1 110.392 81.5274 110.392C81.9547 110.392 82.319 110.536 82.6204 110.824C82.9263 111.108 83.0792 111.447 83.0792 111.843C83.0792 112.243 82.9263 112.587 82.6204 112.875C82.319 113.159 81.9547 113.3 81.5274 113.3ZM88.5091 125.169C87.7219 125.169 87.009 124.966 86.3703 124.561C85.736 124.152 85.2322 123.552 84.8589 122.76C84.4901 121.964 84.3056 120.988 84.3056 119.832C84.3056 118.644 84.4968 117.657 84.8791 116.87C85.2615 116.078 85.7698 115.487 86.404 115.095C87.0427 114.699 87.7422 114.501 88.5024 114.501C89.0826 114.501 89.5662 114.6 89.953 114.798C90.3443 114.992 90.6592 115.235 90.8976 115.527C91.1405 115.815 91.3249 116.098 91.4509 116.377H91.5386V111.182H94.4061V125H91.5723V123.34H91.4509C91.3159 123.628 91.1248 123.914 90.8774 124.197C90.6345 124.476 90.3173 124.708 89.926 124.892C89.5392 125.076 89.0669 125.169 88.5091 125.169ZM89.42 122.881C89.8833 122.881 90.2746 122.755 90.594 122.504C90.9178 122.247 91.1652 121.89 91.3362 121.431C91.5116 120.972 91.5993 120.434 91.5993 119.818C91.5993 119.202 91.5138 118.667 91.3429 118.212C91.172 117.758 90.9246 117.407 90.6007 117.16C90.2769 116.912 89.8833 116.789 89.42 116.789C88.9477 116.789 88.5496 116.917 88.2257 117.173C87.9019 117.43 87.6567 117.785 87.4903 118.239C87.3239 118.694 87.2406 119.22 87.2406 119.818C87.2406 120.421 87.3239 120.954 87.4903 121.417C87.6612 121.876 87.9064 122.236 88.2257 122.497C88.5496 122.753 88.9477 122.881 89.42 122.881ZM100.922 125.202C99.8563 125.202 98.9387 124.987 98.1695 124.555C97.4048 124.118 96.8156 123.502 96.4017 122.706C95.9879 121.905 95.781 120.958 95.781 119.865C95.781 118.799 95.9879 117.864 96.4017 117.059C96.8156 116.253 97.3981 115.626 98.1493 115.176C98.9049 114.726 99.7911 114.501 100.808 114.501C101.491 114.501 102.128 114.612 102.717 114.832C103.311 115.048 103.828 115.374 104.269 115.81C104.714 116.247 105.061 116.795 105.308 117.457C105.555 118.113 105.679 118.883 105.679 119.764V120.554H96.928V118.772H102.973C102.973 118.359 102.884 117.992 102.704 117.673C102.524 117.353 102.274 117.104 101.955 116.924C101.64 116.739 101.273 116.647 100.855 116.647C100.419 116.647 100.032 116.748 99.6944 116.951C99.3615 117.149 99.1006 117.416 98.9117 117.754C98.7228 118.086 98.6261 118.458 98.6216 118.867V120.56C98.6216 121.073 98.716 121.516 98.9049 121.89C99.0984 122.263 99.3705 122.551 99.7213 122.753C100.072 122.956 100.488 123.057 100.97 123.057C101.289 123.057 101.581 123.012 101.847 122.922C102.112 122.832 102.339 122.697 102.528 122.517C102.717 122.337 102.861 122.117 102.96 121.856L105.618 122.031C105.483 122.67 105.207 123.228 104.788 123.705C104.375 124.177 103.839 124.546 103.183 124.811C102.53 125.072 101.777 125.202 100.922 125.202ZM109.859 119.009V125H106.985V114.636H109.724V116.465H109.846C110.075 115.862 110.46 115.385 110.999 115.034C111.539 114.679 112.194 114.501 112.963 114.501C113.682 114.501 114.31 114.659 114.845 114.974C115.381 115.289 115.797 115.738 116.093 116.323C116.39 116.903 116.539 117.596 116.539 118.401V125H113.664V118.914C113.669 118.28 113.507 117.785 113.179 117.43C112.85 117.07 112.398 116.89 111.823 116.89C111.436 116.89 111.094 116.973 110.797 117.14C110.505 117.306 110.275 117.549 110.109 117.868C109.947 118.183 109.864 118.563 109.859 119.009ZM123.747 114.636V116.795H117.505V114.636H123.747ZM118.922 112.153H121.797V121.815C121.797 122.081 121.837 122.288 121.918 122.436C121.999 122.58 122.111 122.681 122.255 122.74C122.404 122.798 122.575 122.827 122.768 122.827C122.903 122.827 123.038 122.816 123.173 122.794C123.308 122.767 123.411 122.746 123.483 122.733L123.935 124.872C123.792 124.917 123.589 124.969 123.328 125.027C123.067 125.09 122.75 125.128 122.377 125.142C121.684 125.169 121.077 125.076 120.555 124.865C120.038 124.654 119.635 124.325 119.347 123.88C119.06 123.435 118.918 122.872 118.922 122.193V112.153ZM125.049 125V114.636H127.923V125H125.049ZM126.493 113.3C126.065 113.3 125.699 113.159 125.393 112.875C125.092 112.587 124.941 112.243 124.941 111.843C124.941 111.447 125.092 111.108 125.393 110.824C125.699 110.536 126.065 110.392 126.493 110.392C126.92 110.392 127.284 110.536 127.586 110.824C127.892 111.108 128.045 111.447 128.045 111.843C128.045 112.243 127.892 112.587 127.586 112.875C127.284 113.159 126.92 113.3 126.493 113.3ZM135.168 114.636V116.795H128.927V114.636H135.168ZM130.344 112.153H133.218V121.815C133.218 122.081 133.259 122.288 133.34 122.436C133.421 122.58 133.533 122.681 133.677 122.74C133.825 122.798 133.996 122.827 134.19 122.827C134.325 122.827 134.46 122.816 134.595 122.794C134.73 122.767 134.833 122.746 134.905 122.733L135.357 124.872C135.213 124.917 135.011 124.969 134.75 125.027C134.489 125.09 134.172 125.128 133.798 125.142C133.106 125.169 132.498 125.076 131.977 124.865C131.459 124.654 131.057 124.325 130.769 123.88C130.481 123.435 130.339 122.872 130.344 122.193V112.153ZM138.245 128.886C137.881 128.886 137.539 128.857 137.219 128.799C136.904 128.745 136.644 128.675 136.437 128.589L137.084 126.444C137.422 126.547 137.725 126.604 137.995 126.613C138.27 126.622 138.506 126.559 138.704 126.424C138.906 126.289 139.07 126.059 139.196 125.735L139.365 125.297L135.647 114.636H138.67L140.816 122.247H140.924L143.089 114.636H146.132L142.104 126.12C141.911 126.678 141.648 127.164 141.315 127.577C140.987 127.996 140.57 128.317 140.067 128.542C139.563 128.772 138.956 128.886 138.245 128.886ZM155.098 125.202C154.144 125.202 153.321 125.031 152.628 124.69C151.936 124.348 151.403 123.884 151.029 123.3C150.661 122.71 150.476 122.054 150.476 121.33C150.476 120.79 150.584 120.311 150.8 119.892C151.016 119.474 151.317 119.089 151.704 118.739C152.091 118.383 152.541 118.03 153.054 117.679L155.732 115.918C156.078 115.698 156.333 115.466 156.495 115.223C156.656 114.976 156.737 114.708 156.737 114.42C156.737 114.146 156.627 113.892 156.407 113.658C156.186 113.424 155.874 113.309 155.469 113.314C155.199 113.314 154.965 113.375 154.767 113.496C154.569 113.613 154.414 113.768 154.302 113.962C154.194 114.151 154.14 114.362 154.14 114.596C154.14 114.884 154.221 115.176 154.383 115.473C154.545 115.77 154.761 116.085 155.03 116.418C155.3 116.746 155.595 117.101 155.914 117.484L162.466 125H159.47L154.005 118.914C153.645 118.505 153.285 118.077 152.925 117.632C152.57 117.182 152.273 116.705 152.035 116.202C151.796 115.693 151.677 115.142 151.677 114.549C151.677 113.878 151.832 113.276 152.143 112.74C152.458 112.205 152.898 111.782 153.465 111.472C154.032 111.157 154.693 111 155.449 111C156.186 111 156.823 111.15 157.358 111.452C157.898 111.749 158.312 112.144 158.6 112.639C158.892 113.129 159.038 113.669 159.038 114.259C159.038 114.911 158.876 115.502 158.552 116.033C158.233 116.559 157.783 117.032 157.203 117.45L154.383 119.481C154 119.76 153.717 120.045 153.533 120.338C153.353 120.626 153.263 120.902 153.263 121.168C153.263 121.496 153.344 121.791 153.506 122.051C153.668 122.312 153.897 122.519 154.194 122.672C154.491 122.821 154.839 122.895 155.24 122.895C155.725 122.895 156.204 122.785 156.677 122.564C157.154 122.339 157.585 122.022 157.972 121.613C158.364 121.199 158.676 120.709 158.91 120.142C159.144 119.575 159.261 118.948 159.261 118.26H161.643C161.643 119.105 161.55 119.868 161.366 120.547C161.182 121.222 160.925 121.811 160.597 122.315C160.268 122.814 159.893 123.223 159.47 123.543C159.335 123.628 159.205 123.709 159.079 123.786C158.953 123.862 158.822 123.943 158.687 124.028C158.175 124.442 157.601 124.741 156.967 124.926C156.337 125.11 155.714 125.202 155.098 125.202ZM32.7362 133.182H35.6577V142.156C35.6577 143.163 35.417 144.045 34.9357 144.8C34.4589 145.556 33.791 146.145 32.9318 146.568C32.0727 146.987 31.0719 147.196 29.9293 147.196C28.7823 147.196 27.7792 146.987 26.9201 146.568C26.061 146.145 25.393 145.556 24.9162 144.8C24.4394 144.045 24.201 143.163 24.201 142.156V133.182H27.1225V141.906C27.1225 142.432 27.2372 142.9 27.4666 143.309C27.7005 143.719 28.0289 144.04 28.4517 144.274C28.8745 144.508 29.3671 144.625 29.9293 144.625C30.4961 144.625 30.9886 144.508 31.407 144.274C31.8298 144.04 32.1559 143.719 32.3853 143.309C32.6192 142.9 32.7362 142.432 32.7362 141.906V133.182ZM40.2307 133.182L43.0173 137.891H43.1252L45.9253 133.182H49.2247L45.0077 140.091L49.3191 147H45.959L43.1252 142.284H43.0173L40.1835 147H36.8369L41.1618 140.091L36.9178 133.182H40.2307ZM58.0958 147.169C57.3086 147.169 56.5956 146.966 55.9569 146.561C55.3227 146.152 54.8189 145.552 54.4455 144.76C54.0767 143.964 53.8923 142.988 53.8923 141.832C53.8923 140.644 54.0834 139.657 54.4658 138.87C54.8481 138.078 55.3564 137.487 55.9906 137.095C56.6294 136.699 57.3288 136.501 58.089 136.501C58.6693 136.501 59.1528 136.6 59.5396 136.798C59.931 136.992 60.2458 137.235 60.4842 137.527C60.7271 137.815 60.9116 138.098 61.0375 138.377H61.1252V133.182H63.9928V147H61.159V145.34H61.0375C60.9026 145.628 60.7114 145.914 60.464 146.197C60.2211 146.476 59.904 146.708 59.5127 146.892C59.1258 147.076 58.6535 147.169 58.0958 147.169ZM59.0066 144.881C59.4699 144.881 59.8613 144.755 60.1806 144.504C60.5045 144.247 60.7519 143.89 60.9228 143.431C61.0982 142.972 61.186 142.434 61.186 141.818C61.186 141.202 61.1005 140.667 60.9296 140.212C60.7586 139.758 60.5112 139.407 60.1874 139.16C59.8635 138.912 59.4699 138.789 59.0066 138.789C58.5343 138.789 58.1362 138.917 57.8124 139.173C57.4885 139.43 57.2434 139.785 57.0769 140.239C56.9105 140.694 56.8273 141.22 56.8273 141.818C56.8273 142.421 56.9105 142.954 57.0769 143.417C57.2479 143.876 57.493 144.236 57.8124 144.497C58.1362 144.753 58.5343 144.881 59.0066 144.881ZM70.509 147.202C69.4429 147.202 68.5253 146.987 67.7561 146.555C66.9915 146.118 66.4022 145.502 65.9884 144.706C65.5746 143.905 65.3676 142.958 65.3676 141.865C65.3676 140.799 65.5746 139.864 65.9884 139.059C66.4022 138.253 66.9847 137.626 67.7359 137.176C68.4916 136.726 69.3777 136.501 70.3943 136.501C71.078 136.501 71.7145 136.612 72.3037 136.832C72.8975 137.048 73.4148 137.374 73.8556 137.81C74.3009 138.247 74.6472 138.795 74.8946 139.457C75.142 140.113 75.2657 140.883 75.2657 141.764V142.554H66.5147V140.772H72.5601C72.5601 140.359 72.4701 139.992 72.2902 139.673C72.1103 139.353 71.8607 139.104 71.5413 138.924C71.2264 138.739 70.8598 138.647 70.4415 138.647C70.0052 138.647 69.6184 138.748 69.281 138.951C68.9481 139.149 68.6872 139.416 68.4983 139.754C68.3094 140.086 68.2127 140.458 68.2082 140.867V142.56C68.2082 143.073 68.3027 143.516 68.4916 143.89C68.685 144.263 68.9571 144.551 69.308 144.753C69.6588 144.956 70.0749 145.057 70.5562 145.057C70.8756 145.057 71.1679 145.012 71.4333 144.922C71.6987 144.832 71.9259 144.697 72.1148 144.517C72.3037 144.337 72.4477 144.117 72.5466 143.856L75.205 144.031C75.0701 144.67 74.7934 145.228 74.3751 145.705C73.9613 146.177 73.426 146.546 72.7693 146.811C72.117 147.072 71.3636 147.202 70.509 147.202ZM85.1943 139.592L82.5629 139.754C82.5179 139.529 82.4212 139.326 82.2728 139.146C82.1243 138.962 81.9287 138.816 81.6858 138.708C81.4474 138.595 81.1617 138.539 80.8289 138.539C80.3836 138.539 80.008 138.634 79.7021 138.822C79.3962 139.007 79.2433 139.254 79.2433 139.565C79.2433 139.812 79.3423 140.021 79.5402 140.192C79.7381 140.363 80.0777 140.5 80.559 140.604L82.4347 140.982C83.4423 141.188 84.1935 141.521 84.6883 141.98C85.1831 142.439 85.4305 143.042 85.4305 143.788C85.4305 144.468 85.2303 145.064 84.83 145.576C84.4341 146.089 83.8899 146.489 83.1971 146.777C82.5089 147.061 81.715 147.202 80.8154 147.202C79.4435 147.202 78.3504 146.917 77.5363 146.346C76.7266 145.77 76.2521 144.987 76.1126 143.998L78.9397 143.849C79.0251 144.267 79.2321 144.587 79.5604 144.807C79.8888 145.023 80.3094 145.131 80.8221 145.131C81.3259 145.131 81.7308 145.034 82.0366 144.841C82.347 144.643 82.5044 144.389 82.5089 144.078C82.5044 143.818 82.3942 143.604 82.1783 143.438C81.9624 143.267 81.6296 143.136 81.1797 143.046L79.385 142.689C78.3729 142.486 77.6195 142.135 77.1247 141.636C76.6344 141.137 76.3893 140.5 76.3893 139.727C76.3893 139.061 76.5692 138.487 76.929 138.006C77.2934 137.525 77.8039 137.154 78.4606 136.893C79.1219 136.632 79.8955 136.501 80.7817 136.501C82.0906 136.501 83.1207 136.778 83.8719 137.331C84.6275 137.885 85.0684 138.638 85.1943 139.592ZM86.6704 147V136.636H89.5447V147H86.6704ZM88.1143 135.3C87.687 135.3 87.3204 135.159 87.0145 134.875C86.7131 134.587 86.5624 134.243 86.5624 133.843C86.5624 133.447 86.7131 133.108 87.0145 132.824C87.3204 132.536 87.687 132.392 88.1143 132.392C88.5416 132.392 88.9059 132.536 89.2073 132.824C89.5132 133.108 89.6661 133.447 89.6661 133.843C89.6661 134.243 89.5132 134.587 89.2073 134.875C88.9059 135.159 88.5416 135.3 88.1143 135.3ZM95.9462 151.102C95.0151 151.102 94.2166 150.974 93.5509 150.718C92.8897 150.466 92.3634 150.122 91.9721 149.685C91.5808 149.249 91.3266 148.759 91.2097 148.214L93.868 147.857C93.949 148.064 94.0772 148.257 94.2526 148.437C94.4281 148.617 94.6597 148.761 94.9476 148.869C95.24 148.981 95.5953 149.038 96.0136 149.038C96.6389 149.038 97.1539 148.885 97.5587 148.579C97.9681 148.277 98.1727 147.771 98.1727 147.061V145.165H98.0513C97.9253 145.453 97.7364 145.725 97.4845 145.981C97.2326 146.238 96.9088 146.447 96.5129 146.609C96.1171 146.771 95.6448 146.852 95.096 146.852C94.3179 146.852 93.6094 146.672 92.9707 146.312C92.3364 145.947 91.8304 145.392 91.4526 144.645C91.0792 143.894 90.8925 142.945 90.8925 141.798C90.8925 140.624 91.0837 139.643 91.4661 138.856C91.8484 138.069 92.3567 137.48 92.9909 137.088C93.6296 136.697 94.3291 136.501 95.0893 136.501C95.6695 136.501 96.1553 136.6 96.5467 136.798C96.938 136.992 97.2529 137.235 97.4913 137.527C97.7342 137.815 97.9208 138.098 98.0513 138.377H98.1592V136.636H101.013V147.101C101.013 147.983 100.797 148.721 100.366 149.314C99.9337 149.908 99.3355 150.353 98.5708 150.65C97.8106 150.952 96.9358 151.102 95.9462 151.102ZM96.0069 144.692C96.4702 144.692 96.8615 144.578 97.1809 144.348C97.5048 144.114 97.7522 143.782 97.9231 143.35C98.0985 142.913 98.1862 142.392 98.1862 141.784C98.1862 141.177 98.1008 140.651 97.9298 140.206C97.7589 139.756 97.5115 139.407 97.1876 139.16C96.8638 138.912 96.4702 138.789 96.0069 138.789C95.5346 138.789 95.1365 138.917 94.8126 139.173C94.4888 139.425 94.2436 139.776 94.0772 140.226C93.9108 140.676 93.8276 141.195 93.8276 141.784C93.8276 142.383 93.9108 142.9 94.0772 143.336C94.2481 143.768 94.4933 144.103 94.8126 144.342C95.1365 144.576 95.5346 144.692 96.0069 144.692ZM105.605 141.009V147H102.731V136.636H105.47V138.465H105.591C105.821 137.862 106.205 137.385 106.745 137.034C107.285 136.679 107.939 136.501 108.709 136.501C109.428 136.501 110.056 136.659 110.591 136.974C111.126 137.289 111.542 137.738 111.839 138.323C112.136 138.903 112.285 139.596 112.285 140.401V147H109.41V140.914C109.415 140.28 109.253 139.785 108.924 139.43C108.596 139.07 108.144 138.89 107.568 138.89C107.181 138.89 106.84 138.973 106.543 139.14C106.25 139.306 106.021 139.549 105.855 139.868C105.693 140.183 105.609 140.563 105.605 141.009ZM115.66 147.175C115.215 147.175 114.832 147.018 114.513 146.703C114.198 146.384 114.041 146.001 114.041 145.556C114.041 145.115 114.198 144.737 114.513 144.423C114.832 144.108 115.215 143.95 115.66 143.95C116.092 143.95 116.47 144.108 116.793 144.423C117.117 144.737 117.279 145.115 117.279 145.556C117.279 145.853 117.203 146.125 117.05 146.373C116.901 146.615 116.706 146.811 116.463 146.96C116.22 147.103 115.952 147.175 115.66 147.175Z" fill="#0D0D12"/>
    <path d="M313.478 136.935C313.407 136.935 313.336 136.864 313.336 136.793V132.086C313.336 132.016 313.407 131.945 313.478 131.945C313.548 131.945 313.619 132.016 313.619 132.086V136.793C313.619 136.882 313.548 136.935 313.478 136.935Z" fill="#1A1B25"/>
    <path d="M312.469 135.094C312.451 135.094 312.433 135.094 312.416 135.077C311.495 134.652 310.893 133.732 310.893 132.723C310.893 132.023 311.174 131.384 311.632 130.916C312.1 130.438 312.753 130.139 313.478 130.139C314.912 130.139 316.063 131.29 316.063 132.723C316.063 133.413 315.797 134.068 315.301 134.546C315.248 134.599 315.16 134.599 315.107 134.546C315.054 134.493 315.054 134.404 315.107 134.351C315.549 133.909 315.779 133.342 315.779 132.723C315.779 131.449 314.753 130.423 313.478 130.423C312.875 130.423 312.328 130.652 311.919 131.028C311.462 131.448 311.176 132.051 311.176 132.723C311.176 133.625 311.707 134.439 312.522 134.811C312.593 134.847 312.628 134.935 312.593 135.006C312.575 135.059 312.522 135.094 312.469 135.094Z" fill="#1A1B25"/>
    <path d="M316.682 136.935C316.611 136.935 316.541 136.864 316.541 136.793V132.529C316.541 132.458 316.611 132.387 316.682 132.387C316.753 132.387 316.824 132.458 316.824 132.529V136.793C316.824 136.882 316.753 136.935 316.682 136.935Z" fill="#1A1B25"/>
    <path d="M310.291 135.307C310.369 135.307 310.432 135.243 310.432 135.165C310.432 135.087 310.369 135.024 310.291 135.024C310.212 135.024 310.149 135.087 310.149 135.165C310.149 135.243 310.212 135.307 310.291 135.307Z" fill="#1A1B25"/>
    <path d="M319.869 135.307C319.947 135.307 320.01 135.243 320.01 135.165C320.01 135.087 319.947 135.024 319.869 135.024C319.79 135.024 319.727 135.087 319.727 135.165C319.727 135.243 319.79 135.307 319.869 135.307Z" fill="#1A1B25"/>
    <path d="M310.291 136.9C310.369 136.9 310.432 136.836 310.432 136.758C310.432 136.68 310.369 136.616 310.291 136.616C310.212 136.616 310.149 136.68 310.149 136.758C310.149 136.836 310.212 136.9 310.291 136.9Z" fill="#1A1B25"/>
    <path d="M311.884 136.9C311.962 136.9 312.025 136.836 312.025 136.758C312.025 136.68 311.962 136.616 311.884 136.616C311.806 136.616 311.742 136.68 311.742 136.758C311.742 136.836 311.806 136.9 311.884 136.9Z" fill="#1A1B25"/>
    <path d="M313.478 136.9C313.556 136.9 313.619 136.836 313.619 136.758C313.619 136.68 313.556 136.616 313.478 136.616C313.399 136.616 313.336 136.68 313.336 136.758C313.336 136.836 313.399 136.9 313.478 136.9Z" fill="#1A1B25"/>
    <path d="M316.682 136.9C316.76 136.9 316.824 136.836 316.824 136.758C316.824 136.68 316.76 136.616 316.682 136.616C316.604 136.616 316.541 136.68 316.541 136.758C316.541 136.836 316.604 136.9 316.682 136.9Z" fill="#1A1B25"/>
    <path d="M318.275 136.9C318.354 136.9 318.417 136.836 318.417 136.758C318.417 136.68 318.354 136.616 318.275 136.616C318.197 136.616 318.134 136.68 318.134 136.758C318.134 136.836 318.197 136.9 318.275 136.9Z" fill="#1A1B25"/>
    <path d="M319.869 136.9C319.947 136.9 320.01 136.836 320.01 136.758C320.01 136.68 319.947 136.616 319.869 136.616C319.79 136.616 319.727 136.68 319.727 136.758C319.727 136.836 319.79 136.9 319.869 136.9Z" fill="#1A1B25"/>
    <path d="M310.291 138.51C310.369 138.51 310.432 138.447 310.432 138.368C310.432 138.29 310.369 138.227 310.291 138.227C310.212 138.227 310.149 138.29 310.149 138.368C310.149 138.447 310.212 138.51 310.291 138.51Z" fill="#1A1B25"/>
    <path d="M311.884 138.51C311.962 138.51 312.025 138.447 312.025 138.368C312.025 138.29 311.962 138.227 311.884 138.227C311.806 138.227 311.742 138.29 311.742 138.368C311.742 138.447 311.806 138.51 311.884 138.51Z" fill="#1A1B25"/>
    <path d="M313.478 138.51C313.556 138.51 313.619 138.447 313.619 138.368C313.619 138.29 313.556 138.227 313.478 138.227C313.399 138.227 313.336 138.29 313.336 138.368C313.336 138.447 313.399 138.51 313.478 138.51Z" fill="#1A1B25"/>
    <path d="M315.071 138.51C315.149 138.51 315.212 138.447 315.212 138.368C315.212 138.29 315.149 138.227 315.071 138.227C314.993 138.227 314.929 138.29 314.929 138.368C314.929 138.447 314.993 138.51 315.071 138.51Z" fill="#1A1B25"/>
    <path d="M316.682 138.51C316.76 138.51 316.824 138.447 316.824 138.368C316.824 138.29 316.76 138.227 316.682 138.227C316.604 138.227 316.541 138.29 316.541 138.368C316.541 138.447 316.604 138.51 316.682 138.51Z" fill="#1A1B25"/>
    <path d="M318.275 138.51C318.354 138.51 318.417 138.447 318.417 138.368C318.417 138.29 318.354 138.227 318.275 138.227C318.197 138.227 318.134 138.29 318.134 138.368C318.134 138.447 318.197 138.51 318.275 138.51Z" fill="#1A1B25"/>
    <path d="M319.869 138.51C319.947 138.51 320.01 138.447 320.01 138.368C320.01 138.29 319.947 138.227 319.869 138.227C319.79 138.227 319.727 138.29 319.727 138.368C319.727 138.447 319.79 138.51 319.869 138.51Z" fill="#1A1B25"/>
    <path d="M310.291 140.102C310.369 140.102 310.432 140.039 310.432 139.961C310.432 139.883 310.369 139.819 310.291 139.819C310.212 139.819 310.149 139.883 310.149 139.961C310.149 140.039 310.212 140.102 310.291 140.102Z" fill="#1A1B25"/>
    <path d="M308.68 135.307C308.758 135.307 308.821 135.243 308.821 135.165C308.821 135.087 308.758 135.024 308.68 135.024C308.601 135.024 308.538 135.087 308.538 135.165C308.538 135.243 308.601 135.307 308.68 135.307Z" fill="#1A1B25"/>
    <path d="M308.68 136.9C308.758 136.9 308.821 136.836 308.821 136.758C308.821 136.68 308.758 136.616 308.68 136.616C308.601 136.616 308.538 136.68 308.538 136.758C308.538 136.836 308.601 136.9 308.68 136.9Z" fill="#1A1B25"/>
    <path d="M308.68 138.51C308.758 138.51 308.821 138.447 308.821 138.368C308.821 138.29 308.758 138.227 308.68 138.227C308.601 138.227 308.538 138.29 308.538 138.368C308.538 138.447 308.601 138.51 308.68 138.51Z" fill="#1A1B25"/>
    <path d="M308.68 140.102C308.758 140.102 308.821 140.039 308.821 139.961C308.821 139.883 308.758 139.819 308.68 139.819C308.601 139.819 308.538 139.883 308.538 139.961C308.538 140.039 308.601 140.102 308.68 140.102Z" fill="#1A1B25"/>
    <path d="M321.462 135.307C321.54 135.307 321.604 135.243 321.604 135.165C321.604 135.087 321.54 135.024 321.462 135.024C321.384 135.024 321.32 135.087 321.32 135.165C321.32 135.243 321.384 135.307 321.462 135.307Z" fill="#1A1B25"/>
    <path d="M321.462 136.9C321.54 136.9 321.604 136.836 321.604 136.758C321.604 136.68 321.54 136.616 321.462 136.616C321.384 136.616 321.32 136.68 321.32 136.758C321.32 136.836 321.384 136.9 321.462 136.9Z" fill="#1A1B25"/>
    <path d="M321.462 138.51C321.54 138.51 321.604 138.447 321.604 138.368C321.604 138.29 321.54 138.227 321.462 138.227C321.384 138.227 321.32 138.29 321.32 138.368C321.32 138.447 321.384 138.51 321.462 138.51Z" fill="#1A1B25"/>
    <path d="M321.462 140.102C321.54 140.102 321.604 140.039 321.604 139.961C321.604 139.883 321.54 139.819 321.462 139.819C321.384 139.819 321.32 139.883 321.32 139.961C321.32 140.039 321.384 140.102 321.462 140.102Z" fill="#1A1B25"/>
    <path d="M311.884 140.102C311.962 140.102 312.025 140.039 312.025 139.961C312.025 139.883 311.962 139.819 311.884 139.819C311.806 139.819 311.742 139.883 311.742 139.961C311.742 140.039 311.806 140.102 311.884 140.102Z" fill="#1A1B25"/>
    <path d="M313.478 140.102C313.556 140.102 313.619 140.039 313.619 139.961C313.619 139.883 313.556 139.819 313.478 139.819C313.399 139.819 313.336 139.883 313.336 139.961C313.336 140.039 313.399 140.102 313.478 140.102Z" fill="#1A1B25"/>
    <path d="M315.071 140.102C315.149 140.102 315.212 140.039 315.212 139.961C315.212 139.883 315.149 139.819 315.071 139.819C314.993 139.819 314.929 139.883 314.929 139.961C314.929 140.039 314.993 140.102 315.071 140.102Z" fill="#1A1B25"/>
    <path d="M316.682 140.102C316.76 140.102 316.824 140.039 316.824 139.961C316.824 139.883 316.76 139.819 316.682 139.819C316.604 139.819 316.541 139.883 316.541 139.961C316.541 140.039 316.604 140.102 316.682 140.102Z" fill="#1A1B25"/>
    <path d="M318.275 140.102C318.354 140.102 318.417 140.039 318.417 139.961C318.417 139.883 318.354 139.819 318.275 139.819C318.197 139.819 318.134 139.883 318.134 139.961C318.134 140.039 318.197 140.102 318.275 140.102Z" fill="#1A1B25"/>
    <path d="M319.869 140.102C319.947 140.102 320.01 140.039 320.01 139.961C320.01 139.883 319.947 139.819 319.869 139.819C319.79 139.819 319.727 139.883 319.727 139.961C319.727 140.039 319.79 140.102 319.869 140.102Z" fill="#1A1B25"/>
    <path d="M316.7 135.501C316.629 135.501 316.558 135.431 316.558 135.36C316.558 135.289 316.629 135.218 316.7 135.218C317.603 135.218 318.329 134.493 318.329 133.59C318.329 133.148 318.151 131.732 317.815 130.37C317.39 128.6 316.948 127.963 316.7 127.963C316.594 127.963 316.222 128.087 315.744 129.733C315.726 129.803 315.638 129.857 315.567 129.839C315.496 129.821 315.443 129.733 315.46 129.662C315.85 128.335 316.239 127.68 316.682 127.68C317.868 127.68 318.594 132.794 318.594 133.59C318.612 134.634 317.744 135.501 316.7 135.501Z" fill="#1A1B25"/>
    <path fill-rule="evenodd" clip-rule="evenodd" d="M313.495 133.584L314.277 132.801L313.495 133.584Z" fill="#1A1B25"/>
    <path d="M313.495 133.584L314.277 132.801" stroke="#1A1B25" stroke-width="0.3" stroke-linecap="round"/>
    <path fill-rule="evenodd" clip-rule="evenodd" d="M316.682 133.583L317.23 133.192L316.682 133.583Z" fill="#1A1B25"/>
    <path d="M316.682 133.583L317.23 133.192" stroke="#1A1B25" stroke-width="0.3" stroke-linecap="round"/>
    <path fill-rule="evenodd" clip-rule="evenodd" d="M313.393 133.192L312.964 132.801L313.393 133.192Z" fill="#1A1B25"/>
    <path d="M313.393 133.192L312.964 132.801" stroke="#1A1B25" stroke-width="0.3" stroke-linecap="round"/>
    <path d="M329.633 150.131L329.635 148.936H329.78L330.931 147.573H332.074L330.529 149.378H330.292L329.633 150.131ZM328.73 151.165V146.376H329.727V151.165H328.73ZM330.975 151.165L329.918 149.6L330.582 148.897L332.142 151.165H330.975Z" fill="#0D0D12"/>
    <path d="M326.233 151.165V147.573H327.199V148.2H327.236C327.302 147.977 327.412 147.809 327.566 147.695C327.72 147.579 327.898 147.522 328.099 147.522C328.149 147.522 328.203 147.525 328.261 147.531C328.318 147.537 328.369 147.546 328.413 147.557V148.441C328.366 148.427 328.301 148.414 328.219 148.403C328.136 148.392 328.06 148.387 327.992 148.387C327.845 148.387 327.714 148.419 327.599 148.483C327.485 148.545 327.395 148.632 327.328 148.745C327.262 148.857 327.229 148.986 327.229 149.133V151.165H326.233Z" fill="#0D0D12"/>
    <path d="M323.636 151.233C323.407 151.233 323.202 151.193 323.023 151.113C322.844 151.032 322.702 150.913 322.598 150.756C322.495 150.597 322.443 150.399 322.443 150.162C322.443 149.962 322.48 149.795 322.553 149.659C322.627 149.523 322.726 149.414 322.853 149.332C322.979 149.249 323.122 149.187 323.283 149.145C323.445 149.103 323.615 149.073 323.793 149.056C324.001 149.034 324.17 149.014 324.298 148.995C324.425 148.975 324.518 148.945 324.576 148.906C324.633 148.867 324.662 148.81 324.662 148.733V148.719C324.662 148.571 324.616 148.456 324.522 148.375C324.43 148.294 324.299 148.254 324.129 148.254C323.95 148.254 323.807 148.294 323.701 148.373C323.595 148.451 323.525 148.549 323.491 148.668L322.57 148.593C322.616 148.375 322.708 148.186 322.846 148.027C322.983 147.866 323.16 147.743 323.376 147.658C323.595 147.57 323.847 147.527 324.134 147.527C324.333 147.527 324.524 147.55 324.707 147.597C324.891 147.644 325.054 147.716 325.195 147.814C325.339 147.912 325.452 148.039 325.534 148.193C325.617 148.346 325.658 148.529 325.658 148.742V151.165H324.714V150.667H324.686C324.628 150.779 324.551 150.878 324.454 150.964C324.358 151.048 324.241 151.114 324.106 151.163C323.97 151.209 323.814 151.233 323.636 151.233ZM323.921 150.545C324.068 150.545 324.197 150.516 324.309 150.459C324.421 150.399 324.51 150.32 324.573 150.22C324.637 150.12 324.669 150.007 324.669 149.881V149.5C324.638 149.52 324.595 149.539 324.541 149.556C324.488 149.572 324.428 149.587 324.361 149.601C324.294 149.613 324.227 149.625 324.16 149.636C324.093 149.645 324.032 149.654 323.977 149.661C323.86 149.679 323.758 149.706 323.671 149.743C323.584 149.781 323.516 149.831 323.467 149.895C323.419 149.958 323.395 150.036 323.395 150.129C323.395 150.265 323.444 150.368 323.542 150.44C323.642 150.51 323.768 150.545 323.921 150.545Z" fill="#0D0D12"/>
    <path d="M318.662 151.165V146.376H320.551C320.914 146.376 321.224 146.445 321.479 146.584C321.735 146.721 321.93 146.912 322.064 147.157C322.199 147.4 322.267 147.681 322.267 147.999C322.267 148.317 322.199 148.597 322.061 148.84C321.924 149.084 321.725 149.273 321.465 149.409C321.206 149.544 320.893 149.612 320.525 149.612H319.321V148.801H320.361C320.556 148.801 320.717 148.767 320.843 148.7C320.971 148.632 321.066 148.537 321.128 148.417C321.192 148.296 321.224 148.156 321.224 147.999C321.224 147.84 321.192 147.701 321.128 147.582C321.066 147.462 320.971 147.37 320.843 147.304C320.715 147.237 320.553 147.204 320.357 147.204H319.674V151.165H318.662Z" fill="#0D0D12"/>
    <path d="M316.716 146.376V151.165H315.72V146.376H316.716Z" fill="#0D0D12"/>
    <path d="M313.122 151.233C312.893 151.233 312.688 151.193 312.509 151.113C312.33 151.032 312.188 150.913 312.084 150.756C311.981 150.597 311.929 150.399 311.929 150.162C311.929 149.962 311.966 149.795 312.039 149.659C312.112 149.523 312.212 149.414 312.338 149.332C312.465 149.249 312.608 149.187 312.769 149.145C312.931 149.103 313.101 149.073 313.278 149.056C313.487 149.034 313.656 149.014 313.783 148.995C313.911 148.975 314.004 148.945 314.062 148.906C314.119 148.867 314.148 148.81 314.148 148.733V148.719C314.148 148.571 314.101 148.456 314.008 148.375C313.916 148.294 313.785 148.254 313.615 148.254C313.436 148.254 313.293 148.294 313.187 148.373C313.081 148.451 313.011 148.549 312.977 148.668L312.055 148.593C312.102 148.375 312.194 148.186 312.331 148.027C312.469 147.866 312.645 147.743 312.862 147.658C313.08 147.57 313.333 147.527 313.62 147.527C313.819 147.527 314.01 147.55 314.193 147.597C314.377 147.644 314.539 147.716 314.681 147.814C314.825 147.912 314.938 148.039 315.02 148.193C315.103 148.346 315.144 148.529 315.144 148.742V151.165H314.2V150.667H314.172C314.114 150.779 314.037 150.878 313.94 150.964C313.843 151.048 313.727 151.114 313.592 151.163C313.456 151.209 313.299 151.233 313.122 151.233ZM313.407 150.545C313.553 150.545 313.683 150.516 313.795 150.459C313.907 150.399 313.995 150.32 314.059 150.22C314.123 150.12 314.155 150.007 314.155 149.881V149.5C314.124 149.52 314.081 149.539 314.027 149.556C313.974 149.572 313.914 149.587 313.847 149.601C313.78 149.613 313.712 149.625 313.645 149.636C313.578 149.645 313.518 149.654 313.463 149.661C313.346 149.679 313.244 149.706 313.157 149.743C313.069 149.781 313.002 149.831 312.953 149.895C312.905 149.958 312.881 150.036 312.881 150.129C312.881 150.265 312.93 150.368 313.028 150.44C313.128 150.51 313.254 150.545 313.407 150.545Z" fill="#0D0D12"/>
    <path d="M311.647 147.573V148.322H309.484V147.573H311.647ZM309.975 146.713H310.971V150.061C310.971 150.153 310.985 150.225 311.013 150.276C311.041 150.326 311.08 150.361 311.13 150.382C311.181 150.402 311.241 150.412 311.308 150.412C311.354 150.412 311.401 150.408 311.448 150.4C311.495 150.391 311.531 150.384 311.556 150.379L311.712 151.12C311.662 151.136 311.592 151.154 311.502 151.174C311.411 151.196 311.301 151.209 311.172 151.214C310.932 151.223 310.722 151.191 310.541 151.118C310.361 151.045 310.222 150.931 310.122 150.777C310.022 150.622 309.973 150.428 309.975 150.192V146.713Z" fill="#0D0D12"/>
    <path d="M308.14 151.165V147.573H309.136V151.165H308.14ZM308.64 147.11C308.492 147.11 308.365 147.061 308.259 146.963C308.155 146.863 308.103 146.744 308.103 146.605C308.103 146.468 308.155 146.35 308.259 146.252C308.365 146.152 308.492 146.103 308.64 146.103C308.788 146.103 308.915 146.152 309.019 146.252C309.125 146.35 309.178 146.468 309.178 146.605C309.178 146.744 309.125 146.863 309.019 146.963C308.915 147.061 308.788 147.11 308.64 147.11Z" fill="#0D0D12"/>
    <path d="M305.788 152.586C305.466 152.586 305.189 152.542 304.958 152.453C304.729 152.366 304.547 152.247 304.411 152.095C304.276 151.944 304.188 151.774 304.147 151.586L305.068 151.462C305.096 151.534 305.141 151.601 305.202 151.663C305.262 151.725 305.343 151.775 305.442 151.813C305.544 151.852 305.667 151.871 305.812 151.871C306.028 151.871 306.207 151.818 306.347 151.712C306.489 151.608 306.56 151.432 306.56 151.186V150.529H306.518C306.474 150.629 306.409 150.723 306.322 150.812C306.234 150.901 306.122 150.973 305.985 151.029C305.848 151.085 305.684 151.113 305.494 151.113C305.224 151.113 304.979 151.051 304.757 150.926C304.537 150.8 304.362 150.608 304.231 150.349C304.102 150.089 304.037 149.76 304.037 149.362C304.037 148.955 304.103 148.615 304.236 148.343C304.368 148.07 304.545 147.866 304.764 147.73C304.986 147.594 305.228 147.527 305.491 147.527C305.693 147.527 305.861 147.561 305.997 147.629C306.132 147.697 306.241 147.781 306.324 147.882C306.408 147.982 306.473 148.08 306.518 148.177H306.555V147.573H307.544V151.2C307.544 151.505 307.47 151.761 307.32 151.967C307.17 152.173 306.963 152.327 306.698 152.43C306.435 152.534 306.131 152.586 305.788 152.586ZM305.809 150.365C305.97 150.365 306.106 150.325 306.216 150.246C306.329 150.165 306.414 150.05 306.474 149.9C306.534 149.749 306.565 149.568 306.565 149.357C306.565 149.147 306.535 148.965 306.476 148.81C306.417 148.654 306.331 148.534 306.219 148.448C306.106 148.362 305.97 148.319 305.809 148.319C305.646 148.319 305.508 148.364 305.396 148.453C305.283 148.54 305.198 148.661 305.141 148.817C305.083 148.973 305.054 149.153 305.054 149.357C305.054 149.565 305.083 149.744 305.141 149.895C305.2 150.045 305.285 150.161 305.396 150.244C305.508 150.325 305.646 150.365 305.809 150.365Z" fill="#0D0D12"/>
    <path d="M302.574 151.165V147.573H303.57V151.165H302.574ZM303.074 147.11C302.926 147.11 302.799 147.061 302.693 146.963C302.589 146.863 302.537 146.744 302.537 146.605C302.537 146.468 302.589 146.35 302.693 146.252C302.799 146.152 302.926 146.103 303.074 146.103C303.222 146.103 303.349 146.152 303.453 146.252C303.559 146.35 303.612 146.468 303.612 146.605C303.612 146.744 303.559 146.863 303.453 146.963C303.349 147.061 303.222 147.11 303.074 147.11Z" fill="#0D0D12"/>
    <path d="M299.698 151.165H298V146.376H299.712C300.193 146.376 300.608 146.472 300.955 146.664C301.303 146.854 301.57 147.127 301.757 147.484C301.946 147.841 302.04 148.268 302.04 148.766C302.04 149.264 301.946 149.693 301.757 150.052C301.57 150.41 301.302 150.685 300.951 150.877C300.602 151.069 300.184 151.165 299.698 151.165ZM299.012 150.297H299.655C299.955 150.297 300.206 150.244 300.411 150.138C300.616 150.031 300.771 149.865 300.874 149.64C300.978 149.414 301.03 149.123 301.03 148.766C301.03 148.412 300.978 148.123 300.874 147.898C300.771 147.674 300.617 147.508 300.413 147.402C300.209 147.296 299.957 147.243 299.658 147.243H299.012V150.297Z" fill="#0D0D12"/>
    </g>
    </g>
    <defs>
    <filter id="filter0_d_76_9848" x="0" y="0" width="364" height="184" filterUnits="userSpaceOnUse" color-interpolation-filters="sRGB">
    <feFlood flood-opacity="0" result="BackgroundImageFix"/>
    <feColorMatrix in="SourceAlpha" type="matrix" values="0 0 0 0 0 0 0 0 0 0 0 0 0 0 0 0 0 0 127 0" result="hardAlpha"/>
    <feOffset dy="1"/>
    <feGaussianBlur stdDeviation="1"/>
    <feComposite in2="hardAlpha" operator="out"/>
    <feColorMatrix type="matrix" values="0 0 0 0 0.0784314 0 0 0 0 0.0823529 0 0 0 0 0.101961 0 0 0 0.05 0"/>
    <feBlend mode="normal" in2="BackgroundImageFix" result="effect1_dropShadow_76_9848"/>
    <feBlend mode="normal" in="SourceGraphic" in2="effect1_dropShadow_76_9848" result="shape"/>
    </filter>
    <radialGradient id="paint0_radial_76_9848" cx="0" cy="0" r="1" gradientUnits="userSpaceOnUse" gradientTransform="translate(373.74 8.67237) rotate(128.742) scale(270.061 352.901)">
    <stop stop-color="#0D0D12" stop-opacity="0.45"/>
    <stop offset="1" stop-color="#0D0D12" stop-opacity="0"/>
    <stop offset="1" stop-color="#0D0D12" stop-opacity="0"/>
    </radialGradient>
    <clipPath id="clip0_76_9848">
    <path d="M2 17C2 8.16344 9.16344 1 18 1H346C354.837 1 362 8.16344 362 17V165C362 173.837 354.837 181 346 181H18C9.16344 181 2 173.837 2 165V17Z" fill="white"/>
    </clipPath>
    </defs>
    </svg>
    