<svg width="32" height="32" viewBox="0 0 32 32" fill="none" xmlns="http://www.w3.org/2000/svg">
<path fill-rule="evenodd" clip-rule="evenodd" d="M28.2793 10.5331V21.3997C28.2793 25.4264 25.7593 28.2664 21.7327 28.2664H10.1993C6.17268 28.2664 3.66602 25.4264 3.66602 21.3997V10.5331C3.66602 6.50639 6.18602 3.66772 10.1993 3.66772H21.7327C25.7593 3.66772 28.2793 6.50639 28.2793 10.5331Z" stroke="#A1A1A2" stroke-width="2" stroke-linecap="round" stroke-linejoin="round"/>
<path d="M7.04102 21.9095L9.07968 19.7588C9.81435 18.9828 11.0477 18.9788 11.789 19.7481L12.969 20.9521C13.765 21.7641 15.089 21.7055 15.8103 20.8268L18.7823 17.2121C19.6357 16.1735 21.201 16.1095 22.1357 17.0735L24.9037 19.9295" stroke="#A1A1A2" stroke-width="2" stroke-linecap="round" stroke-linejoin="round"/>
<path fill-rule="evenodd" clip-rule="evenodd" d="M13.7512 12.1789C13.7512 13.4695 12.7032 14.5175 11.4125 14.5175C10.1219 14.5175 9.0752 13.4695 9.0752 12.1789C9.0752 10.8882 10.1219 9.84021 11.4125 9.84021C12.7032 9.84021 13.7512 10.8882 13.7512 12.1789Z" stroke="#A1A1A2" stroke-width="2" stroke-linecap="round" stroke-linejoin="round"/>
</svg>
