<svg width="30" height="30" viewBox="0 0 30 30" fill="none" xmlns="http://www.w3.org/2000/svg">
<g clip-path="url(#clip0_1078_37378)">
<rect width="30" height="30" rx="7" fill="#FF6363"/>
<path fill-rule="evenodd" clip-rule="evenodd" d="M17.0644 8.70174L23.1217 19.2143C23.255 19.5281 23.3133 19.7833 23.33 20.0484C23.3633 20.6677 23.1467 21.2696 22.7218 21.7329C22.2968 22.1945 21.7219 22.467 21.0971 22.5H8.89911C8.64082 22.4843 8.38253 22.4257 8.1409 22.3349C6.93277 21.8477 6.34954 20.4769 6.84112 19.2887L12.9401 8.69431C13.1484 8.3219 13.465 8.00068 13.8566 7.79424C14.9897 7.16585 16.4312 7.57872 17.0644 8.70174ZM15.7229 15.6298C15.7229 16.0262 15.398 16.3573 14.998 16.3573C14.5981 16.3573 14.2648 16.0262 14.2648 15.6298V13.2938C14.2648 12.8966 14.5981 12.5754 14.998 12.5754C15.398 12.5754 15.7229 12.8966 15.7229 13.2938V15.6298ZM14.998 19.1813C14.5981 19.1813 14.2648 18.8502 14.2648 18.4546C14.2648 18.0575 14.5981 17.7272 14.998 17.7272C15.398 17.7272 15.7229 18.05 15.7229 18.4456C15.7229 18.8502 15.398 19.1813 14.998 19.1813Z" fill="white"/>
</g>
<defs>
<clipPath id="clip0_1078_37378">
<rect width="30" height="30" rx="7" fill="white"/>
</clipPath>
</defs>
</svg>
