<svg width="44" height="44" viewBox="0 0 44 44" fill="none" xmlns="http://www.w3.org/2000/svg">
<path d="M30.6756 18.8735L14.17 13.811C13.9466 13.7458 13.7111 13.7335 13.4821 13.7751C13.2532 13.8166 13.037 13.9109 12.8507 14.0504C12.6645 14.1899 12.5133 14.3709 12.409 14.5789C12.3047 14.7869 12.2503 15.0164 12.25 15.2491V28.7491C12.25 29.1469 12.408 29.5285 12.6893 29.8098C12.9706 30.0911 13.3522 30.2491 13.75 30.2491C13.8934 30.2492 14.0361 30.2286 14.1738 30.1882L22 27.7863V28.7491C22 29.1469 22.158 29.5285 22.4393 29.8098C22.7206 30.0911 23.1022 30.2491 23.5 30.2491H26.5C26.8978 30.2491 27.2794 30.0911 27.5607 29.8098C27.842 29.5285 28 29.1469 28 28.7491V25.946L30.6756 25.1257C30.9853 25.0326 31.2569 24.8425 31.4503 24.5834C31.6437 24.3243 31.7488 24.0099 31.75 23.6866V20.3116C31.7486 19.9884 31.6434 19.6742 31.45 19.4153C31.2566 19.1564 30.9851 18.9665 30.6756 18.8735ZM22 26.2179L13.75 28.7491V15.2491L22 17.7804V26.2179ZM26.5 28.7491H23.5V27.326L26.5 26.4054V28.7491ZM30.25 23.6866H30.2397L23.5 25.7566V18.2416L30.2397 20.3041H30.25V23.6791V23.6866Z" fill="#DC6803"/>
</svg>
