<svg width="100" height="14" viewBox="0 0 100 14" fill="none" xmlns="http://www.w3.org/2000/svg">
    <path d="M14.0354 6.17082C15.1419 5.5459 15.8087 4.74143 15.8087 3.86424C15.8087 1.87461 12.3813 0.261185 8.15409 0.261185C3.92686 0.261185 0.499512 1.87461 0.499512 3.86513C0.499512 4.74233 1.16533 5.5468 2.27288 6.17171C3.03237 6.59995 3.03237 7.66213 2.27288 8.09037C1.16533 8.7144 0.499512 9.51884 0.499512 10.3961C0.499512 12.3866 3.92686 14 8.15409 14C12.3813 14 15.8087 12.3866 15.8087 10.3961C15.8087 9.51884 15.1429 8.7144 14.0354 8.08948C13.2758 7.66124 13.2758 6.59906 14.0354 6.17082ZM32.1051 11.6611L34.6509 3.20073H32.6892L31.072 9.32311L29.1967 3.20073H27.1836L25.3946 9.27284L23.6911 3.20073H21.7129L24.2595 11.6611H26.2551L28.1479 5.40404L30.1261 11.6611H32.1042H32.1051ZM41.2062 7.40622C41.2062 9.05471 40.2088 10.1815 38.7808 10.1815C37.3527 10.1815 36.3204 9.05471 36.3204 7.38918C36.3204 5.72367 37.3187 4.61394 38.7459 4.61394C40.173 4.61394 41.2062 5.74074 41.2062 7.40622ZM43.1843 7.37209C43.1843 4.81595 41.2916 2.96549 38.7798 2.96549C36.2681 2.96549 34.3414 4.86623 34.3414 7.42242C34.3414 9.97856 36.2341 11.829 38.7459 11.829C41.2576 11.829 43.1843 9.92828 43.1843 7.37209ZM47.8294 4.76478C47.9993 4.76478 48.149 4.78363 48.284 4.81506V3.02924C48.2133 3.02385 48.1435 3.01577 48.07 3.01577C47.1581 3.01577 46.3839 3.45302 45.9027 4.52954V3.20073H43.9245V11.662H45.9027V7.91084C45.9027 5.67339 46.608 4.76567 47.8294 4.76567M57.4041 11.662L54.0495 6.39708L57.112 3.20163H54.6869L51.2117 6.88456V0.635586H49.2336V11.662H51.2117V9.34109L52.7087 7.79409L55.1001 11.6629H57.4052L57.4041 11.662ZM69.4815 11.662H71.4598V6.29648C71.4598 4.22787 70.2558 2.96639 68.2769 2.96639C66.9866 2.96639 65.9894 3.55538 65.4043 4.61483C64.9054 3.53832 63.9419 2.96639 62.6345 2.96639C61.3264 2.96639 60.5013 3.53832 60.0024 4.59778V3.20163H58.0241V11.662H60.0024V7.75996C60.0024 5.5899 60.9481 4.61483 62.1356 4.61483C63.1853 4.61483 63.7528 5.37172 63.7528 6.49852V11.662H65.7311V7.75996C65.7311 5.5899 66.6769 4.61483 67.8643 4.61483C68.9141 4.61483 69.4815 5.37172 69.4815 6.49852V11.662ZM77.3091 8.09667C77.3091 9.44258 76.4834 10.4679 75.3308 10.4679C74.6079 10.4679 74.0919 10.0638 74.0919 9.39136C74.0919 8.66772 74.6594 8.31486 75.6577 8.12991L77.3091 7.81029V8.09667ZM77.464 11.662H79.2709V6.41412C79.2709 4.36164 77.8777 2.96639 75.5714 2.96639C73.5759 2.96639 72.1479 4.16053 71.821 5.87631L73.3867 6.3306C73.7313 5.23704 74.3502 4.64895 75.4851 4.64895C76.5514 4.64895 77.2566 5.3385 77.3091 6.44824L75.0216 6.83523C73.0599 7.17188 72.1136 7.97904 72.1136 9.34109C72.1136 10.8378 73.249 11.8308 74.8834 11.8308C76.0537 11.8308 76.948 11.3092 77.464 10.3673V11.662ZM86.6505 7.40716C86.6505 9.0385 85.7048 10.1824 84.2767 10.1824C82.8487 10.1824 81.8853 9.0385 81.8853 7.40716C81.8853 5.77575 82.8487 4.61483 84.2767 4.61483C85.7048 4.61483 86.6505 5.75869 86.6505 7.40716ZM86.6505 11.662H88.6289V0.635586H86.6505V4.24403C86.0831 3.4198 85.1888 2.96549 83.9836 2.96549C81.5236 2.96549 79.9064 4.7989 79.9064 7.40622C79.9064 10.0136 81.5236 11.8299 83.9836 11.8299C85.2054 11.8299 86.082 11.3756 86.6505 10.5514V11.6611V11.662ZM96.425 0.930082H97.1091V0.635586H95.4029V0.930082H96.0843V2.57853H96.425V0.930082ZM95.4599 6.53176H91.0724C91.1929 5.28732 92.1221 4.48016 93.3261 4.48016C94.5302 4.48016 95.3393 5.30438 95.4599 6.53176ZM97.2834 7.91084C97.6794 5.28732 96.0793 2.96549 93.361 2.96549C90.8843 2.96549 89.0946 4.81595 89.0946 7.45649C89.0946 10.0971 91.0386 11.8299 93.4815 11.8299C95.1325 11.8299 96.4228 11.0389 97.1291 9.84477L95.873 8.98734C95.357 9.74422 94.5313 10.2488 93.5164 10.2488C92.2084 10.2488 91.0912 9.40751 91.0049 7.91084H97.2845H97.2834ZM99.4995 2.57853V0.635586H99.0056L98.4487 2.23734L97.8978 0.635586H97.4039V2.57853H97.7308V1.01268L98.2761 2.57853H98.6168L99.171 1.00191V2.57853H99.5006H99.4995Z" fill="white"/>
    </svg>
    