<svg width="224" height="51" viewBox="0 0 224 51" fill="none" xmlns="http://www.w3.org/2000/svg">
    <path d="M3 2L22.9668 47.4672H25.8404H26.1959L34.7869 29.2329L37.9864 21.7143L38.727 19.2278L39.0825 17.0669V14.5804L38.727 12.4196L38.3715 11.3539L37.6309 10.2587L36.9199 9.54826L35.8534 8.83784L34.7869 8.48263L33.0983 8.27542L31.7356 8.15701L30.3433 8.33462L29.0398 8.66023L27.4401 9.42986L26.4032 10.3771L25.5145 11.8571L25.2479 13.5148L25.1886 15.2021L25.2479 17.0373L25.5145 19.1686L26.2255 22.0399L26.8476 23.5199L27.4993 25.2368L28.6547 27.6641L30.1952 30.5058L33.4835 36.6628L35.3202 40.2445L36.7421 42.9086L37.7494 44.4479L38.9047 45.6023L40.2674 46.6384L41.9264 47.4672L43.7927 47.9704L45.7183 48L47.555 47.7336L49.4214 47.0824L51.0211 46.0759L52.5615 44.7143L53.5984 42.9974L54.3686 41.251L54.813 39.3269L55.1389 37.3436L55.2574 34.2059V30.0618V5.43372" stroke="black" stroke-width="5.40421" stroke-miterlimit="10"/>
    <path d="M213.2 40.4118C208.036 40.4118 204.66 35.3276 204.66 29.7666C204.66 24.2454 207.877 18.8036 213.597 18.8036C218.085 18.8036 220.906 22.021 221.581 26.5889C221.7 27.3436 221.263 27.7806 220.508 27.7806H209.188C208.711 27.7806 208.433 28.0586 208.473 28.5353C208.87 32.3485 211.094 35.5659 214.788 35.5659C217.092 35.5659 218.721 34.3742 219.793 32.5074C220.151 31.9513 220.508 31.7527 221.025 31.8718C221.541 32.0704 221.74 32.5074 221.541 33.1826C220.429 36.9561 217.45 40.4118 213.2 40.4118ZM208.513 24.8015C208.393 25.3179 208.671 25.5959 209.148 25.5959H215.146C215.623 25.5959 215.901 25.3179 215.821 24.8015C215.384 22.5374 214.272 21.0677 212.286 21.0677C210.26 21.0677 209.029 22.5771 208.513 24.8015Z" fill="black"/>
    <path d="M189.176 40.4118C188.66 40.4118 188.342 40.0146 188.342 39.2996V33.8579C188.342 33.1429 188.7 32.7457 189.256 32.7457C189.852 32.7457 190.209 33.0635 190.408 33.699C191.123 36.2809 192.434 38.1477 194.896 38.1477C197.121 38.1477 197.796 36.6383 197.796 35.4864C197.796 33.6195 196.088 32.5471 193.466 31.3555C190.606 30.0844 188.461 28.0586 188.461 24.9207C188.461 21.6238 190.567 18.8036 194.42 18.8036C196.604 18.8036 198.114 19.6378 198.868 19.6378C198.987 19.6378 199.107 19.5981 199.226 19.4789C199.742 19.1611 200.02 18.8036 200.497 18.8036C201.093 18.8036 201.45 19.2009 201.45 19.9158L201.41 24.6426C201.41 25.3576 201.053 25.7548 200.457 25.7548C199.861 25.7548 199.544 25.437 199.345 24.8015C198.67 22.5374 197.518 21.0677 195.214 21.0677C193.387 21.0677 192.434 22.1005 192.434 23.4113C192.434 24.8809 193.546 25.7151 195.611 26.7081C200.06 28.9722 202.523 30.8391 202.523 34.2154C202.523 38.1477 199.305 40.4118 195.532 40.4118C193.387 40.4118 191.48 39.538 190.845 39.538C190.686 39.538 190.527 39.5777 190.447 39.6968C189.971 39.9749 189.812 40.4118 189.335 40.4118H189.176Z" fill="black"/>
    <path d="M172.402 40.4117C168.787 40.4117 167.198 37.1943 167.198 32.7058V20.1143C167.198 19.7965 167.198 19.5979 167 19.5582C166.96 19.5185 166.92 19.5185 166.92 19.439V19.3993C166.92 19.3199 166.96 19.2802 167.04 19.2802H170.892C171.568 19.2802 171.965 19.6774 171.965 20.3923V31.4745C171.965 33.1428 172.084 36.6382 174.587 36.6382C175.778 36.6382 176.97 35.8041 178.36 34.1755C178.638 33.8975 178.718 33.6194 178.718 33.2619V20.1143C178.718 19.7965 178.718 19.5979 178.479 19.5582C178.4 19.5185 178.36 19.5185 178.36 19.439V19.3993C178.36 19.3199 178.4 19.2802 178.519 19.2802H182.372C183.047 19.2802 183.444 19.6774 183.444 20.3923L183.484 32.9044C183.484 36.8765 184.239 36.241 185.351 36.241C185.867 36.241 186.185 36.5985 186.185 37.1943C186.185 37.7107 185.947 38.0681 185.271 38.3462L181.657 39.9748C181.22 40.1734 180.743 40.2528 180.306 40.2528H179.75C178.996 40.2528 178.718 39.8953 178.718 39.2995V37.949C178.718 37.3135 178.281 37.1546 177.844 37.6312C176.414 39.1406 174.745 40.4117 172.402 40.4117Z" fill="black"/>
    <path d="M153.831 40.4118C148.35 40.4118 144.497 35.7645 144.497 29.4091C144.497 23.173 148.35 18.8036 153.831 18.8036C159.273 18.8036 163.165 23.173 163.165 29.4091C163.165 35.7645 159.273 40.4118 153.831 40.4118ZM149.501 30.4419C150.733 34.5331 153.195 38.2272 156.333 37.2739C159.352 36.3603 159.034 31.6732 158.002 28.2572C156.77 24.2851 154.427 20.8691 151.289 21.8224C148.27 22.736 148.469 27.0656 149.501 30.4419Z" fill="black"/>
    <path d="M122.636 39.9351C121.96 39.9351 121.563 39.5379 121.563 38.8229V38.7435C121.563 38.0682 121.921 37.8299 122.556 37.5916C124.185 37.1944 124.145 35.6453 124.145 32.9045V15.9437C124.145 13.3221 123.112 13.6002 122.318 13.6002C121.722 13.6002 121.444 13.1235 121.444 12.6469C121.444 12.2894 121.603 11.8524 122.358 11.495L126.052 9.8664C126.528 9.66779 126.926 9.58835 127.363 9.58835H127.919C128.554 9.58835 128.912 9.98556 128.912 10.7005V21.2663C128.912 21.9018 129.349 22.0607 129.746 21.5443C130.858 20.2336 132.447 18.8036 134.87 18.8036C138.167 18.8036 140.431 21.5841 140.431 26.5095V32.9045C140.431 35.6453 140.431 37.1944 141.94 37.5916C142.576 37.8299 142.893 38.0682 142.893 38.7435V38.8229C142.893 39.5379 142.536 39.9351 141.861 39.9351H134.234C133.559 39.9351 133.201 39.5379 133.201 38.8229V38.7435C133.201 38.0682 133.519 37.8299 134.155 37.5916C135.664 37.1944 135.664 35.6453 135.664 32.9045V27.5819C135.664 25.9136 135.744 22.4182 133.003 22.4182C131.811 22.4182 130.779 23.0935 129.269 24.7617C128.991 25.0398 128.912 25.3178 128.912 25.6753V32.9045C128.912 35.6453 128.912 37.1944 130.421 37.5916C131.017 37.8299 131.374 38.0682 131.374 38.7435V38.8229C131.374 39.5379 131.017 39.9351 130.342 39.9351H122.636Z" fill="black"/>
    <path d="M99.7543 39.9351C99.079 39.9351 98.6818 39.5379 98.6818 38.8229V38.7435C98.6818 38.0682 99.0393 37.8299 99.6749 37.5916C101.224 37.1944 101.224 35.6453 101.224 32.9045V15.9834C101.224 13.3221 100.191 13.6002 99.3571 13.6002C98.801 13.6002 98.5229 13.1632 98.5229 12.6469C98.5229 12.2894 98.6818 11.8524 99.4365 11.5347L103.131 9.90612C103.607 9.66779 104.004 9.58835 104.441 9.58835H104.997C105.633 9.58835 105.99 10.0253 105.99 10.7403V26.4697C105.99 27.0656 106.427 27.2642 106.864 26.8272L110.916 22.9743C111.829 22.0607 111.909 21.7032 110.956 21.5841C110.28 21.4252 109.883 21.1074 109.883 20.4719V20.3924C109.883 19.6775 110.28 19.2803 110.995 19.2803H118.026C118.701 19.2803 119.098 19.6775 119.098 20.3527V20.4322C119.098 21.1074 118.741 21.4649 118.105 21.5841C116.596 21.7827 115.126 22.4579 113.498 24.007L111.75 25.715C111.432 25.9931 111.393 26.3506 111.591 26.7081L116.159 33.9373C118.026 36.9561 119.098 37.3533 120.091 37.5519C120.965 37.7108 121.323 38.0682 121.323 38.7435V38.8229C121.323 39.5379 120.886 39.9351 120.012 39.9351H111.71C111.075 39.9351 110.678 39.5379 110.678 38.8627V38.7832C110.678 38.108 111.035 37.7902 111.671 37.7108C112.783 37.671 113.061 37.1547 112.266 35.9233L108.413 29.7666C108.175 29.3296 107.778 29.2899 107.42 29.6077L106.388 30.561C106.149 30.7993 105.99 31.0774 105.99 31.4349V32.9045C105.99 35.6453 106.03 37.1547 107.54 37.5519C108.016 37.7108 108.533 38.0682 108.533 38.7435V38.8229C108.533 39.5379 108.016 39.9351 107.381 39.9351H99.7543Z" fill="black"/>
    <path d="M83.001 39.9352C82.3655 39.9352 81.9683 39.538 81.9683 38.823V38.7436C81.9683 38.0683 82.3258 37.83 82.9216 37.5916C84.431 37.1944 84.431 35.6453 84.431 32.9046V25.3179C84.431 22.6963 83.438 22.9743 82.6038 22.9743C82.008 22.9743 81.73 22.4977 81.73 22.021C81.73 21.6636 81.8889 21.2266 82.6436 20.8691L86.3376 19.2406C86.8143 19.042 87.2115 18.9625 87.6881 18.9625H88.2045C88.84 18.9625 89.1975 19.3597 89.1975 20.0747V21.465C89.1975 22.1402 89.6344 22.2196 90.0714 21.6636C91.4616 19.757 92.8518 18.8036 94.4804 18.8036C96.3473 18.8036 98.0553 19.9953 98.0553 21.9416C98.0553 23.5702 96.7445 24.4837 95.4337 24.4837C93.8051 24.4837 93.0107 22.9346 92.0177 22.9346C91.263 22.9346 90.3891 23.729 89.3961 25.5959C89.2372 25.9137 89.1975 26.1917 89.1975 26.5095V32.9046C89.1975 35.6453 89.1975 37.1944 90.7069 37.5916C91.3424 37.83 91.6602 38.0683 91.6602 38.7436V38.823C91.6602 39.538 91.3027 39.9352 90.6275 39.9352H83.001Z" fill="black"/>
    <path d="M70.6267 40.4118C65.1452 40.4118 61.2922 35.7645 61.2922 29.4091C61.2922 23.173 65.1452 18.8036 70.6267 18.8036C76.0684 18.8036 79.9611 23.173 79.9611 29.4091C79.9611 35.7645 76.0684 40.4118 70.6267 40.4118ZM66.2971 30.4419C67.5284 34.5331 69.9911 38.2272 73.1291 37.2739C76.1479 36.3603 75.8301 31.6732 74.7973 28.2572C73.566 24.2851 71.2225 20.8691 68.0845 21.8224C65.0657 22.736 65.2643 27.0656 66.2971 30.4419Z" fill="black"/>
    </svg>
    