<svg width="17" height="20" viewBox="0 0 17 20" fill="none" xmlns="http://www.w3.org/2000/svg">
    <path d="M7.00016 11.6666V13.3333C5.67408 13.3333 4.40231 13.8601 3.46463 14.7978C2.52695 15.7355 2.00016 17.0072 2.00016 18.3333H0.333496C0.333496 16.5652 1.03588 14.8695 2.28612 13.6193C3.53636 12.369 5.23205 11.6666 7.00016 11.6666ZM7.00016 10.8333C4.23766 10.8333 2.00016 8.59581 2.00016 5.83331C2.00016 3.07081 4.23766 0.833313 7.00016 0.833313C9.76266 0.833313 12.0002 3.07081 12.0002 5.83331C12.0002 8.59581 9.76266 10.8333 7.00016 10.8333ZM7.00016 9.16665C8.84183 9.16665 10.3335 7.67498 10.3335 5.83331C10.3335 3.99165 8.84183 2.49998 7.00016 2.49998C5.1585 2.49998 3.66683 3.99165 3.66683 5.83331C3.66683 7.67498 5.1585 9.16665 7.00016 9.16665ZM14.8718 16.6933L16.1252 17.9466L14.9468 19.125L13.6935 17.8716C12.9946 18.2837 12.1694 18.4268 11.3726 18.274C10.5758 18.1211 9.86211 17.683 9.36527 17.0416C8.86843 16.4002 8.62257 15.5996 8.67377 14.7899C8.72498 13.9802 9.06975 13.2169 9.64344 12.6433C10.2171 12.0696 10.9804 11.7248 11.7901 11.6736C12.5998 11.6224 13.4004 11.8682 14.0418 12.3651C14.6832 12.8619 15.1213 13.5756 15.2741 14.3724C15.4269 15.1692 15.2839 15.9944 14.8718 16.6933ZM12.0002 16.6666C12.4422 16.6666 12.8661 16.491 13.1787 16.1785C13.4912 15.8659 13.6668 15.442 13.6668 15C13.6668 14.558 13.4912 14.134 13.1787 13.8215C12.8661 13.5089 12.4422 13.3333 12.0002 13.3333C11.5581 13.3333 11.1342 13.5089 10.8217 13.8215C10.5091 14.134 10.3335 14.558 10.3335 15C10.3335 15.442 10.5091 15.8659 10.8217 16.1785C11.1342 16.491 11.5581 16.6666 12.0002 16.6666Z" fill="#0D1126" fill-opacity="0.4"/>
    </svg>
    