<svg width="44" height="44" viewBox="0 0 44 44" fill="none" xmlns="http://www.w3.org/2000/svg">
<path d="M31.5318 30.4693L26.8378 25.7762C28.1983 24.1428 28.8767 22.0478 28.7319 19.9269C28.5871 17.806 27.6302 15.8226 26.0603 14.3893C24.4904 12.956 22.4284 12.1831 20.3031 12.2314C18.1778 12.2797 16.153 13.1455 14.6499 14.6486C13.1467 16.1518 12.2809 18.1766 12.2326 20.3019C12.1843 22.4271 12.9572 24.4892 14.3905 26.0591C15.8239 27.629 17.8073 28.5859 19.9281 28.7307C22.049 28.8755 24.144 28.1971 25.7774 26.8365L30.4706 31.5306C30.5403 31.6003 30.623 31.6556 30.714 31.6933C30.8051 31.731 30.9026 31.7504 31.0012 31.7504C31.0997 31.7504 31.1973 31.731 31.2884 31.6933C31.3794 31.6556 31.4621 31.6003 31.5318 31.5306C31.6015 31.4609 31.6568 31.3782 31.6945 31.2871C31.7322 31.1961 31.7516 31.0985 31.7516 31C31.7516 30.9014 31.7322 30.8038 31.6945 30.7128C31.6568 30.6218 31.6015 30.539 31.5318 30.4693ZM13.7512 20.5C13.7512 19.1649 14.1471 17.8599 14.8888 16.7499C15.6305 15.6398 16.6847 14.7747 17.9181 14.2638C19.1515 13.7529 20.5087 13.6192 21.8181 13.8797C23.1274 14.1401 24.3302 14.783 25.2742 15.727C26.2182 16.671 26.861 17.8737 27.1215 19.1831C27.3819 20.4925 27.2483 21.8497 26.7374 23.0831C26.2265 24.3165 25.3613 25.3707 24.2513 26.1124C23.1413 26.8541 21.8362 27.25 20.5012 27.25C18.7116 27.248 16.9959 26.5362 15.7304 25.2708C14.465 24.0053 13.7532 22.2896 13.7512 20.5Z" fill="#A3B0B8"/>
</svg>
