<svg width="119" height="40" viewBox="0 0 119 40" fill="none" xmlns="http://www.w3.org/2000/svg">
    <mask id="path-1-inside-1_2076_2298" fill="white">
    <path d="M0 19.2C0 12.4794 0 9.11905 1.30792 6.55211C2.4584 4.29417 4.29417 2.4584 6.55211 1.30792C9.11905 0 12.4794 0 19.2 0H119V40H19.2C12.4794 40 9.11905 40 6.55211 38.6921C4.29417 37.5416 2.4584 35.7058 1.30792 33.4479C0 30.8809 0 27.5206 0 20.8V19.2Z"/>
    </mask>
    <path d="M0 19.2C0 12.4794 0 9.11905 1.30792 6.55211C2.4584 4.29417 4.29417 2.4584 6.55211 1.30792C9.11905 0 12.4794 0 19.2 0H119V40H19.2C12.4794 40 9.11905 40 6.55211 38.6921C4.29417 37.5416 2.4584 35.7058 1.30792 33.4479C0 30.8809 0 27.5206 0 20.8V19.2Z" fill="#EDFDF4"/>
    <path d="M-1 12C-1 4.8203 4.8203 -1 12 -1H119V1H12C5.92487 1 1 5.92487 1 12H-1ZM119 41H12C4.8203 41 -1 35.1797 -1 28H1C1 34.0751 5.92487 39 12 39H119V41ZM12 41C4.8203 41 -1 35.1797 -1 28V12C-1 4.8203 4.8203 -1 12 -1V1C5.92487 1 1 5.92487 1 12V28C1 34.0751 5.92487 39 12 39V41ZM119 0V40V0Z" fill="#DEE0E3" mask="url(#path-1-inside-1_2076_2298)"/>
    <path d="M17.1962 15.3775C16.1337 16.4803 15.4832 17.9151 15.3541 19.441C15.225 20.9668 15.6251 22.4906 16.4872 23.7562C17.3493 25.0218 18.6208 25.952 20.0879 26.3905C21.5551 26.8291 23.1285 26.7491 24.5437 26.1642C24.6395 25.5392 24.4295 24.9392 24.3437 24.7292C24.152 24.2625 23.5203 23.465 22.4662 22.3592C22.1845 22.0634 22.2028 21.8359 22.3037 21.1617L22.3145 21.0859C22.3828 20.6242 22.4978 20.3509 24.052 20.1042C24.842 19.9792 25.0495 20.2942 25.337 20.7317L25.4337 20.875C25.707 21.275 25.9095 21.3667 26.2153 21.505C26.3528 21.5675 26.5237 21.6467 26.7528 21.7759C27.2962 22.0867 27.2962 22.4375 27.2962 23.2059V23.2934C27.2962 23.6192 27.2645 23.9059 27.2145 24.155C27.854 23.3525 28.2996 22.4131 28.5166 21.4102C28.7337 20.4072 28.7164 19.3677 28.466 18.3725C28.2156 17.3774 27.7389 16.4534 27.0731 15.6726C26.4072 14.8918 25.5701 14.2752 24.627 13.8709C24.1662 14.1817 23.5337 14.6225 23.3128 14.925C23.2003 15.0792 23.0403 15.8684 22.5212 15.9334C22.3862 15.95 22.2037 15.9384 22.0103 15.9259C21.492 15.8925 20.7837 15.8467 20.557 16.4625C20.4128 16.8525 20.3878 17.9125 20.8537 18.4625C20.9287 18.55 20.9428 18.7125 20.892 18.895C20.8253 19.1342 20.6912 19.28 20.6487 19.31C20.5687 19.2634 20.4087 19.0775 20.2995 18.9517C20.0387 18.6475 19.712 18.2684 19.2903 18.1517C19.137 18.1092 18.9687 18.0742 18.8045 18.0392C18.347 17.9434 17.8295 17.8342 17.7087 17.5775C17.6203 17.3892 17.6212 17.13 17.6212 16.8567C17.6212 16.5092 17.6212 16.1167 17.4512 15.7359C17.3921 15.5999 17.3052 15.4779 17.1962 15.3775ZM22.0003 28.3334C17.3978 28.3334 13.667 24.6025 13.667 20C13.667 15.3975 17.3978 11.6667 22.0003 11.6667C26.6028 11.6667 30.3337 15.3975 30.3337 20C30.3337 24.6025 26.6028 28.3334 22.0003 28.3334Z" fill="#014E53"/>
    <path d="M42.804 25L40.4773 17.3636H41.7102L43.3608 23.2102H43.4403L45.071 17.3636H46.3239L47.9347 23.1903H48.0142L49.6648 17.3636H50.8977L48.571 25H47.4176L45.7472 19.1335H45.6278L43.9574 25H42.804ZM54.079 25L51.7523 17.3636H52.9852L54.6358 23.2102H54.7153L56.346 17.3636H57.5989L59.2097 23.1903H59.2892L60.9398 17.3636H62.1727L59.846 25H58.6926L57.0222 19.1335H56.9028L55.2324 25H54.079ZM65.354 25L63.0273 17.3636H64.2602L65.9108 23.2102H65.9903L67.621 17.3636H68.8739L70.4847 23.1903H70.5642L72.2148 17.3636H73.4477L71.121 25H69.9676L68.2972 19.1335H68.1778L66.5074 25H65.354ZM74.7149 25.0795C74.4697 25.0795 74.2592 24.9917 74.0835 24.8161C73.9079 24.6404 73.82 24.4299 73.82 24.1847C73.82 23.9394 73.9079 23.7289 74.0835 23.5533C74.2592 23.3776 74.4697 23.2898 74.7149 23.2898C74.9602 23.2898 75.1706 23.3776 75.3463 23.5533C75.522 23.7289 75.6098 23.9394 75.6098 24.1847C75.6098 24.3471 75.5684 24.4962 75.4855 24.6321C75.406 24.768 75.2982 24.8774 75.1624 24.9602C75.0298 25.0398 74.8806 25.0795 74.7149 25.0795Z" fill="#014E53"/>
    </svg>
    