<svg width="18" height="18" viewBox="0 0 18 18" fill="none" xmlns="http://www.w3.org/2000/svg">
    <path d="M4.19616 4.37752C3.13369 5.48026 2.48324 6.91515 2.35413 8.44099C2.22503 9.96684 2.62514 11.4906 3.48721 12.7562C4.34928 14.0218 5.62075 14.952 7.08792 15.3905C8.55508 15.8291 10.1285 15.7491 11.5437 15.1642C11.6395 14.5392 11.4295 13.9392 11.3437 13.7292C11.152 13.2625 10.5203 12.465 9.46616 11.3592C9.18449 11.0634 9.20283 10.8359 9.30366 10.1617L9.31449 10.0859C9.38283 9.62419 9.49783 9.35085 11.052 9.10419C11.842 8.97919 12.0495 9.29419 12.337 9.73169L12.4337 9.87502C12.707 10.275 12.9095 10.3667 13.2153 10.505C13.3528 10.5675 13.5237 10.6467 13.7528 10.7759C14.2962 11.0867 14.2962 11.4375 14.2962 12.2059V12.2934C14.2962 12.6192 14.2645 12.9059 14.2145 13.155C14.854 12.3525 15.2996 11.4131 15.5166 10.4102C15.7337 9.40723 15.7164 8.36771 15.466 7.37255C15.2156 6.37739 14.7389 5.45344 14.0731 4.67264C13.4072 3.89183 12.5701 3.27524 11.627 2.87085C11.1662 3.18169 10.5337 3.62252 10.3128 3.92502C10.2003 4.07919 10.0403 4.86835 9.52116 4.93335C9.38616 4.95002 9.20366 4.93835 9.01033 4.92585C8.49199 4.89252 7.78366 4.84669 7.55699 5.46252C7.41283 5.85252 7.38783 6.91252 7.85366 7.46252C7.92866 7.55002 7.94283 7.71252 7.89199 7.89502C7.82533 8.13419 7.69116 8.28002 7.64866 8.31002C7.56866 8.26335 7.40866 8.07752 7.29949 7.95169C7.03866 7.64752 6.71199 7.26835 6.29033 7.15169C6.13699 7.10919 5.96866 7.07419 5.80449 7.03919C5.34699 6.94335 4.82949 6.83419 4.70866 6.57752C4.62033 6.38919 4.62116 6.13002 4.62116 5.85669C4.62116 5.50919 4.62116 5.11669 4.45116 4.73585C4.39206 4.59994 4.3052 4.47789 4.19616 4.37752ZM9.00033 17.3334C4.39783 17.3334 0.666992 13.6025 0.666992 9.00002C0.666992 4.39752 4.39783 0.666687 9.00033 0.666687C13.6028 0.666687 17.3337 4.39752 17.3337 9.00002C17.3337 13.6025 13.6028 17.3334 9.00033 17.3334Z" fill="#014E53"/>
    </svg>
    